<svg xmlns="http://www.w3.org/2000/svg" xmlns:xlink="http://www.w3.org/1999/xlink" viewBox="0 0 512 512"><defs><path id="reuse-0" fill="none" stroke="#ef4444" stroke-linecap="round" stroke-linejoin="round" stroke-width="2" d="m357 338.6-46.7-86-46-84.8a9.5 9.5 0 00-16.7 0l-46 84.8-46.7 86a9.6 9.6 0 008.4 14.2h185.3a9.6 9.6 0 008.4-14.2Z"/></defs><defs><linearGradient id="a" x1="163.5" x2="296.6" y1="185.7" y2="416.3" gradientUnits="userSpaceOnUse"><stop offset="0" stop-color="#f87171"/><stop offset=".5" stop-color="#f87171"/><stop offset="1" stop-color="#dc2626"/></linearGradient><linearGradient id="c" x1="173.5" x2="338.5" y1="108.7" y2="394.5" gradientUnits="userSpaceOnUse"><stop offset="0" stop-color="#86c3db"/><stop offset=".5" stop-color="#86c3db"/><stop offset="1" stop-color="#5eafcf"/></linearGradient><linearGradient id="d" x1="275.2" x2="317.7" y1="310.6" y2="384.3" gradientUnits="userSpaceOnUse"><stop offset="0" stop-color="#f3f7fe"/><stop offset=".5" stop-color="#f3f7fe"/><stop offset="1" stop-color="#deeafb"/></linearGradient><linearGradient xlink:href="#d" id="e" x1="1539.3" x2="1560.8" y1="-9777.4" y2="-9740.3" gradientTransform="matrix(.86 -.52 .18 .29 681.78 3920.38)"/><linearGradient xlink:href="#d" id="f" x1="289.1" x2="295.1" y1="274.6" y2="285.1"/><linearGradient xlink:href="#d" id="g" x1="196.8" x2="202.8" y1="310.9" y2="321.4"/><linearGradient xlink:href="#d" id="h" x1="2269.9" x2="2296.6" y1="-3457.9" y2="-3411.7" gradientTransform="rotate(-42 6115.885 1090.126)"/><clipPath id="b"><use xlink:href="#reuse-0" stroke-linecap="round" stroke-linejoin="round" stroke-width="2"/></clipPath></defs><path fill="url(#a)" stroke="#ef4444" stroke-miterlimit="10" stroke-width="4" d="m381 340.1-52.8-97.3-51-94.2a24 24 0 00-42.4 0l-51 94.2-52.8 97.3a24.2 24.2 0 0021.1 35.9H360a24.2 24.2 0 0021.1-35.9Z"/><g clip-path="url(#b)"><path fill="url(#c)" d="M135.6 130.5h240.8v242.2H135.6z"/><path fill="url(#d)" stroke="#e6effc" stroke-miterlimit="10" stroke-width="4" d="m356.3 263.7 1.9 97.2-162.4-.3 160.5-96.9z"/><path fill="url(#e)" stroke="#e6effc" stroke-miterlimit="10" stroke-width="2" d="M303.8 252.6 278 268.2a1 1 0 01-1.4-.4l-4.6-7.7a1 1 0 01.3-1.4l25.8-15.6a1 1 0 011.4.3l4.6 7.8a1 1 0 01-.3 1.4Z" opacity=".5"><animateTransform id="x" fill="freeze" additive="sum" attributeName="transform" begin="0s; x.end+.5s" dur="2.5s" type="translate" values="0 0; -42 30"/><animate id="x" fill="freeze" attributeName="opacity" begin="0s; x.end+.5s" dur="2.5s" keyTimes="0; .2; .8; 1" values="0; .5; .5; 0"/></path><ellipse cx="292.1" cy="279.9" fill="url(#f)" stroke="#e6effc" stroke-miterlimit="10" stroke-width="2" opacity="0" rx="6" ry="6"><animateTransform id="x" fill="freeze" additive="sum" attributeName="transform" begin=".5s; x.end+1s" dur="2.5s" type="translate" values="0 0; -42 30"/><animate id="x" fill="freeze" attributeName="opacity" begin=".5s; x.end+1s" dur="2.5s" keyTimes="0; .2; .8; 1" values="0; 1; 1; 0"/></ellipse><ellipse cx="199.8" cy="316.2" fill="url(#g)" stroke="#e6effc" stroke-miterlimit="10" stroke-width="2" rx="6" ry="6"><animateTransform id="x" fill="freeze" additive="sum" attributeName="transform" begin="0s; x.end+.5s" dur="2.5s" type="translate" values="0 0; -42 30"/><animate id="x" fill="freeze" attributeName="opacity" begin="0s; x.end+.5s" dur="2.5s" keyTimes="0; .2; .8; 1" values="0; 1; 1; 0"/></ellipse><path fill="url(#h)" stroke="#e6effc" stroke-miterlimit="10" stroke-width="2" d="M266.8 294.8 240 319.1a2 2 0 01-2.8-.1L213 292a2 2 0 01.1-2.8l26.9-24.4a2 2 0 012.8.1L267 292a2 2 0 01-.2 2.8Z"><animateTransform additive="sum" attributeName="transform" dur="3s" repeatCount="indefinite" type="translate" values="99 -60; -108 63"/><animateTransform additive="sum" attributeName="transform" dur="3s" repeatCount="indefinite" type="rotate" values="360 240 292; 0 240 292"/></path></g><use xlink:href="#reuse-0" stroke-linecap="round" stroke-linejoin="round" stroke-width="2"/></svg>