<svg xmlns="http://www.w3.org/2000/svg" xmlns:xlink="http://www.w3.org/1999/xlink" viewBox="0 0 512 512"><defs><symbol id="a" viewBox="0 0 359 231"><path fill="none" stroke="#e2e8f0" stroke-linecap="round" stroke-linejoin="round" stroke-width="15" d="M295.5 223.5a56 56 0 000-112l-2.5.1a83.9 83.9 0 00-153-64.2 56 56 0 00-84.6 48.1 56.6 56.6 0 00.8 9 60 60 0 0011.2 119"/></symbol></defs><use xlink:href="#a" width="359" height="231" transform="translate(76.5 140.5)"/><path fill="#374151" d="M372.5 271a4.6 4.6 0 00-3.2 1.3L350 290.7l-19.3-18.4a4.6 4.6 0 00-6.4 0 4.1 4.1 0 000 6l22.5 21.4a4.6 4.6 0 006.4 0l22.5-21.4a4.1 4.1 0 000-6 4.6 4.6 0 00-3.2-1.3Z" opacity="0"><animateTransform attributeName="transform" begin="-1.2s" calcMode="spline" dur="3s" keySplines=".55, 0, .1, 1; .55, 0, .1, 1" repeatCount="indefinite" type="translate" values="0 -30; 0 0; 0 30"/><animate attributeName="opacity" begin="-1.2s" calcMode="spline" dur="3s" keySplines=".55, 0, .1, 1; .55, 0, .1, 1" repeatCount="indefinite" values="0; 1; 0"/></path><path fill="#374151" d="M372.5 244a4.6 4.6 0 00-3.2 1.3L350 263.7l-19.3-18.4a4.6 4.6 0 00-6.4 0 4.1 4.1 0 000 6l22.5 21.4a4.6 4.6 0 006.4 0l22.5-21.4a4.1 4.1 0 000-6 4.6 4.6 0 00-3.2-1.3Z" opacity="0"><animateTransform attributeName="transform" begin="-1.1s" calcMode="spline" dur="3s" keySplines=".55, 0, .1, 1; .55, 0, .1, 1" repeatCount="indefinite" type="translate" values="0 -30; 0 0; 0 30"/><animate attributeName="opacity" begin="-1.1s" calcMode="spline" dur="3s" keySplines=".55, 0, .1, 1; .55, 0, .1, 1" repeatCount="indefinite" values="0; 1; 0"/></path><path fill="#374151" d="M372.5 217a4.6 4.6 0 00-3.2 1.3L350 236.7l-19.3-18.4a4.6 4.6 0 00-6.4 0 4.1 4.1 0 000 6l22.5 21.4a4.6 4.6 0 006.4 0l22.5-21.4a4.1 4.1 0 000-6 4.6 4.6 0 00-3.2-1.3Z" opacity="0"><animateTransform attributeName="transform" begin="-1s" calcMode="spline" dur="3s" keySplines=".55, 0, .1, 1; .55, 0, .1, 1" repeatCount="indefinite" type="translate" values="0 -30; 0 0; 0 30"/><animate attributeName="opacity" begin="-1s" calcMode="spline" dur="3s" keySplines=".55, 0, .1, 1; .55, 0, .1, 1" repeatCount="indefinite" values="0; 1; 0"/></path></svg>