<svg xmlns="http://www.w3.org/2000/svg" viewBox="0 0 512 512"><circle cx="256" cy="256" r="144" fill="none" stroke="#475569" stroke-miterlimit="10" stroke-width="12"/><path fill="#475569" d="M259.2 152v-10.4h4.6v18h-4.7l-6.3-10.4v10.4h-4.6v-18h4.7Zm103.3 105.7v3.3h9.8v4h-14.5v-18H372v4h-9.5v3h8.3v3.8Zm-106.4 116a8.4 8.4 0 01-5.4-1.6 5.8 5.8 0 01-2-4.4h4.4c0 1.6 1.1 2.4 3.1 2.4 1.8 0 2.6-.6 2.6-1.7a1.3 1.3 0 00-.4-1 4.6 4.6 0 00-1.6-.7l-3.4-.7c-2.9-.7-4.4-2.4-4.4-4.9a5 5 0 011.7-3.9 7.5 7.5 0 015.1-1.5 8 8 0 015 1.5 5.2 5.2 0 012 4h-4.3c-.2-1.4-1-2-2.7-2a2.9 2.9 0 00-1.6.4 1.3 1.3 0 00-.6 1c0 .8.5 1.3 1.6 1.6l3.5.8q4.7 1.1 4.7 5.1a4.9 4.9 0 01-2 4.1 8.5 8.5 0 01-5.3 1.5ZM156.2 255l2-8h4.7l-5.2 18h-4.5l-2.5-11.5-2.3 11.5h-4.6l-5.2-18h4.7l2 8 .9 4.2.7-4.3 1.7-7.9h4.4l1.8 8 .6 4.1Z"/><g><path fill="#ef4444" d="m256 172-24 84h48l-24-84z"/><path fill="#e2e8f0" d="m232 256 24 84 24-84h-48z"/><animateTransform additive="sum" attributeName="transform" calcMode="spline" dur="2s" keySplines=".42, 0, .58, 1; .42, 0, .58, 1" repeatCount="indefinite" type="rotate" values="-6 256 256; 6 256 256; -6 256 256"/></g></svg>