<svg xmlns="http://www.w3.org/2000/svg" xmlns:xlink="http://www.w3.org/1999/xlink" viewBox="0 0 512 512"><defs><symbol id="a" viewBox="0 0 99.5 70.9"><path fill="#374151" d="M19.4 0A18.7 18.7 0 000 19.3a18.9 18.9 0 0019.4 19.5 18.7 18.7 0 0014-5.6 18.8 18.8 0 005.4-14A18.7 18.7 0 0019.4 0Zm6.3 25.7a8.6 8.6 0 01-6.3 2.5 8.5 8.5 0 01-6.2-2.5 8.7 8.7 0 01-2.4-6.4A8.6 8.6 0 0113 13a8.4 8.4 0 016.3-2.5 8.4 8.4 0 018.7 8.8 8.7 8.7 0 01-2.4 6.4ZM99.5 17.9V2.6H47.4v68.3h18V44.7h28.9V30.1H65.4V17.9h34.1z"/></symbol></defs><use xlink:href="#a" width="99.5" height="70.9" transform="matrix(1.5 0 0 1.51 181.49 202.35)"/></svg>