<svg xmlns="http://www.w3.org/2000/svg" xmlns:xlink="http://www.w3.org/1999/xlink" viewBox="0 0 512 512"><defs><clipPath id="a"><path fill="none" d="M512 306H304l-35.9-31.4a18.4 18.4 0 00-24.2 0L208 306H0V0h512Z"/></clipPath><symbol id="b" viewBox="0 0 279 279"><path fill="none" stroke="#72b9d5" stroke-linecap="round" stroke-linejoin="round" stroke-width="15" d="M256.8 173.1A133.3 133.3 0 01122.4 40.7 130.5 130.5 0 01127 7.5 133 133 0 007.5 139.1c0 73.1 60 132.4 134.2 132.4 62.5 0 114.8-42.2 129.8-99.2a135.6 135.6 0 01-14.8.8Z"><animateTransform additive="sum" attributeName="transform" dur="6s" repeatCount="indefinite" type="rotate" values="-15 135 135; 9 135 135; -15 135 135"/></path></symbol></defs><path fill="none" stroke="#374151" stroke-linecap="round" stroke-linejoin="round" stroke-width="18" d="M128 332h88l40-36 40 36h88"/><g clip-path="url(#a)"><use xlink:href="#b" width="279" height="279" transform="translate(116.5 116.5)"/></g></svg>