<svg xmlns="http://www.w3.org/2000/svg" xmlns:xlink="http://www.w3.org/1999/xlink" viewBox="0 0 512 512"><defs><symbol id="c" viewBox="0 0 214.3 140.1"><path fill="none" stroke="#94a3b8" stroke-linejoin="round" stroke-width="15" d="M7.5 100.2a32.4 32.4 0 0032.4 32.4h129.8v-.1l2.3.1a34.8 34.8 0 006.5-68.9 32.4 32.4 0 00-48.5-33 48.6 48.6 0 00-88.6 37.1h-1.5a32.4 32.4 0 00-32.4 32.4Z"/></symbol><symbol id="d" viewBox="0 0 359 231"><path fill="none" stroke="#e2e8f0" stroke-linecap="round" stroke-linejoin="round" stroke-width="15" d="M295.5 223.5a56 56 0 000-112l-2.5.1a83.9 83.9 0 00-153-64.2 56 56 0 00-84.6 48.1 56.6 56.6 0 00.8 9 60 60 0 0011.2 119"/></symbol><symbol id="b" overflow="visible" viewBox="0 0 447.7 371.5"><g clip-path="url(#a)"><use xlink:href="#c" width="214.3" height="140.1" transform="translate(195.51 165.01)"><animateTransform additive="sum" attributeName="transform" dur="6s" repeatCount="indefinite" type="translate" values="-9 0; 9 0; -9 0"/></use></g><use xlink:href="#d" width="359" height="231" transform="translate(0 140.5)"><animateTransform additive="sum" attributeName="transform" dur="6s" repeatCount="indefinite" type="translate" values="-18 0; 18 0; -18 0"/></use></symbol><symbol id="e" overflow="visible" viewBox="0 0 136 24"><path fill="#86c3db" d="M12 0a12 12 0 1012 12A12 12 0 0012 0Z" opacity="0"><animateTransform id="x1" additive="sum" attributeName="transform" begin="0s; x1.end+.42s" dur=".58s" keyTimes="0; .71; 1" type="translate" values="0 -46; 0 86; -18 74"/><animate id="y1" attributeName="opacity" begin="0s; y1.end+.42s" dur=".58s" keyTimes="0; .14; .71; 1" values="0; 1; 1; 0"/></path><path fill="#86c3db" d="M68 0a12 12 0 1012 12A12 12 0 0068 0Z" opacity="0"><animateTransform id="x2" additive="sum" attributeName="transform" begin=".67s; x2.end+.42s" dur=".58s" keyTimes="0; .71; 1" type="translate" values="0 -46; 0 86; 0 74"/><animate id="y2" attributeName="opacity" begin=".67s; y2.end+.42s" dur=".58s" keyTimes="0; .14; .71; 1" values="0; 1; 1; 0"/></path><path fill="#86c3db" d="M124 0a12 12 0 1012 12 12 12 0 00-12-12Z" opacity="0"><animateTransform id="x3" additive="sum" attributeName="transform" begin=".33s; x3.end+.42s" dur=".58s" keyTimes="0; .71; 1" type="translate" values="0 -46; 0 86; 18 74"/><animate id="y3" attributeName="opacity" begin=".33s; y3.end+.42s" dur=".58s" keyTimes="0; .14; .71; 1" values="0; 1; 1; 0"/></path></symbol><clipPath id="a"><path fill="none" d="M351.5 308a56 56 0 00-56-56l-2.5.1A83.7 83.7 0 00211.5 148V0h236.2v308Z"><animateTransform additive="sum" attributeName="transform" dur="6s" repeatCount="indefinite" type="translate" values="-18 0; 18 0; -18 0"/></path></clipPath></defs><use xlink:href="#b" width="447.7" height="371.5" transform="translate(64.34)"/><use xlink:href="#e" width="136" height="24" transform="translate(188 350)"/></svg>