<svg xmlns="http://www.w3.org/2000/svg" xmlns:xlink="http://www.w3.org/1999/xlink" viewBox="0 0 512 512"><defs><symbol id="c" viewBox="0 0 178 178"><path fill="none" stroke="#72b9d5" stroke-linecap="round" stroke-linejoin="round" stroke-width="10" d="M163.6 110.4a84.8 84.8 0 01-85.4-84.3A83.3 83.3 0 0181 5 84.7 84.7 0 005 88.7 84.8 84.8 0 0090.4 173a85.2 85.2 0 0082.6-63.1 88 88 0 01-9.4.5Z"/></symbol><symbol id="d" viewBox="0 0 359 231"><path fill="none" stroke="#e2e8f0" stroke-linecap="round" stroke-linejoin="round" stroke-width="15" d="M295.5 223.5a56 56 0 000-112l-2.5.1a83.9 83.9 0 00-153-64.2 56 56 0 00-84.6 48.1 56.6 56.6 0 00.8 9 60 60 0 0011.2 119"/></symbol><symbol id="b" viewBox="0 0 435.5 371.5"><g clip-path="url(#a)"><use xlink:href="#c" width="178" height="178" transform="translate(77 118)"><animateTransform additive="sum" attributeName="transform" dur="6s" repeatCount="indefinite" type="rotate" values="-15 86 86; 9 86 86; -15 86 86"/></use></g><use xlink:href="#d" width="359" height="231" transform="translate(76.5 140.5)"/></symbol><symbol id="f" overflow="visible" viewBox="0 0 155.2 48"><g><path fill="#86c3db" d="m41.2 30.5-5.8-3.3a13.7 13.7 0 000-6.4l5.8-3.3a4 4 0 001.5-5.5 4 4 0 00-5.6-1.5l-5.8 3.3a13.6 13.6 0 00-2.6-2 13.8 13.8 0 00-3-1.2V4a4 4 0 00-8.1 0v6.6a14.3 14.3 0 00-5.7 3.2l-5.8-3.3A4 4 0 00.5 12 4 4 0 002 17.5l5.8 3.3a13.7 13.7 0 000 6.4L2 30.5A4 4 0 00.5 36a4 4 0 003.6 2 4 4 0 002-.5l5.8-3.3a13.6 13.6 0 002.6 2 13.8 13.8 0 003 1.2V44a4 4 0 008 0v-6.6a14.2 14.2 0 005.8-3.2l5.8 3.3a4 4 0 002 .5 4 4 0 003.5-2 4 4 0 00-1.4-5.5Zm-22.6-1.3a6 6 0 01-2.3-8.2 6.1 6.1 0 015.3-3 6.2 6.2 0 013 .8A6 6 0 0127 27a6.1 6.1 0 01-8.3 2.2Z" opacity="0"><animateTransform additive="sum" attributeName="transform" dur="6s" repeatCount="indefinite" type="rotate" values="0 24 24; 360 24 24"/><animate id="t1" attributeName="opacity" begin="0s; t1.end+1s" dur="2s" keyTimes="0; .17; .83; 1" values="0; 1; 1; 0"/></path><animateTransform id="s1" additive="sum" attributeName="transform" begin="0s; s1.end+1s" dur="2s" type="translate" values="0 -36; 0 92;"/></g><g><path fill="#86c3db" d="m97.2 30.5-5.8-3.3a13.7 13.7 0 000-6.4l5.8-3.3a4 4 0 001.5-5.5 4 4 0 00-5.6-1.5l-5.8 3.3a13.6 13.6 0 00-2.6-2 13.8 13.8 0 00-3-1.2V4a4 4 0 00-8.1 0v6.6a14.3 14.3 0 00-5.7 3.2l-5.8-3.3a4 4 0 00-5.6 1.5 4 4 0 001.5 5.5l5.8 3.3a13.7 13.7 0 000 6.4L58 30.5a4 4 0 00-1.5 5.5 4 4 0 003.6 2 4 4 0 002-.5l5.8-3.3a13.6 13.6 0 002.6 2 13.8 13.8 0 003 1.2V44a4 4 0 008 0v-6.6a14.2 14.2 0 005.8-3.2l5.8 3.3a4 4 0 002 .5 4 4 0 003.5-2 4 4 0 00-1.4-5.5Zm-22.6-1.3a6 6 0 01-2.3-8.2 6.1 6.1 0 015.3-3 6.2 6.2 0 013 .8A6 6 0 0183 27a6.1 6.1 0 01-8.3 2.2Z" opacity="0"><animateTransform additive="sum" attributeName="transform" dur="6s" repeatCount="indefinite" type="rotate" values="0 80 24; 360 80 24"/><animate id="t2" attributeName="opacity" begin="-.83s; t2.end+1s" dur="2s" keyTimes="0; .17; .83; 1" values="0; 1; 1; 0"/></path><animateTransform id="s2" additive="sum" attributeName="transform" begin="-.83s; s2.end+1s" dur="2s" type="translate" values="0 -36; 0 92;"/></g><g><path fill="#86c3db" d="m153.2 30.5-5.8-3.3a13.7 13.7 0 000-6.4l5.8-3.3a4 4 0 001.5-5.5 4 4 0 00-5.6-1.5l-5.8 3.3a13.6 13.6 0 00-2.6-2 13.8 13.8 0 00-3-1.2V4a4 4 0 00-8.1 0v6.6a14.3 14.3 0 00-5.7 3.2l-5.8-3.3a4 4 0 00-5.6 1.5 4 4 0 001.5 5.5l5.8 3.3a13.7 13.7 0 000 6.4l-5.8 3.3a4 4 0 00-1.5 5.5 4 4 0 003.6 2 4 4 0 002-.5l5.8-3.3a13.6 13.6 0 002.6 2 13.8 13.8 0 003 1.2V44a4 4 0 008 0v-6.6a14.2 14.2 0 005.8-3.2l5.8 3.3a4 4 0 002 .5 4 4 0 003.5-2 4 4 0 00-1.4-5.5Zm-22.6-1.3a6 6 0 01-2.3-8.2 6.1 6.1 0 015.3-3 6.2 6.2 0 013 .8 6 6 0 012.2 8.2 6.1 6.1 0 01-8.2 2.2Z" opacity="0"><animateTransform additive="sum" attributeName="transform" dur="6s" repeatCount="indefinite" type="rotate" values="0 136 24; 360 136 24"/><animate id="t3" attributeName="opacity" begin=".83s; t3.end+1s" dur="2s" keyTimes="0; .17; .83; 1" values="0; 1; 1; 0"/></path><animateTransform id="s3" additive="sum" attributeName="transform" begin=".83s; s3.end+1s" dur="2s" type="translate" values="0 -36; 0 92;"/></g></symbol><symbol id="e" overflow="visible" viewBox="0 0 155.2 48"><use xlink:href="#f" width="155.2" height="48"/><path fill="#0a5ad4" d="M21.6 38a8 8 0 01-8-8V18a8 8 0 0116 0v12a8 8 0 01-8 8Z" opacity="0"><animateTransform id="x1" additive="sum" attributeName="transform" begin="0s; x1.end+1s" dur="1s" keyTimes="0; .25; 1" type="translate" values="0 -32; 0 -32; 0 120;"/><animate id="y1" attributeName="opacity" begin="0s; y1.end+1s" dur="1s" keyTimes="0; .25; 1" values="0; 1; 0"/></path><path fill="#0a5ad4" d="M77.6 38a8 8 0 01-8-8V18a8 8 0 0116 0v12a8 8 0 01-8 8Z" opacity="0"><animateTransform id="x2" additive="sum" attributeName="transform" begin="1.34s; x2.end+1s" dur="1s" keyTimes="0; .25; 1" type="translate" values="0 -32; 0 -32; 0 120;"/><animate id="y2" attributeName="opacity" begin="1.34s; y2.end+1s" dur="1s" keyTimes="0; .25; 1" values="0; 1; 0"/></path><path fill="#0a5ad4" d="M133.6 38a8 8 0 01-8-8V18a8 8 0 0116 0v12a8 8 0 01-8 8Z" opacity="0"><animateTransform id="x3" additive="sum" attributeName="transform" begin=".67s; x3.end+1s" dur="1s" keyTimes="0; .25; 1" type="translate" values="0 -32; 0 -32; 0 120;"/><animate id="y3" attributeName="opacity" begin=".67s; y3.end+1s" dur="1s" keyTimes="0; .25; 1" values="0; 1; 0"/></path></symbol><clipPath id="a"><path fill="none" d="M288 148a83.8 83.8 0 00-71.4 40 56 56 0 00-84.6 48 56.6 56.6 0 00.8 9A60 60 0 0084 304H0V0h288Z"/></clipPath></defs><use xlink:href="#b" width="435.5" height="371.5"/><use xlink:href="#e" width="155.2" height="48" transform="translate(178.4 338)"/></svg>