<svg xmlns="http://www.w3.org/2000/svg" xmlns:xlink="http://www.w3.org/1999/xlink" viewBox="0 0 512 512"><defs><symbol id="a" overflow="visible" viewBox="0 0 232 72"><circle cx="116" cy="12" r="12" fill="#f8af18"><animateTransform attributeName="transform" begin="-0.33s" calcMode="spline" dur="3s" keySplines=".42, 0, .58, 1; .42, 0, .58, 1" repeatCount="indefinite" type="translate" values="0 -30; 0 30; 0 -30"/></circle><circle cx="156" cy="52" r="16" fill="#f8af18"><animateTransform attributeName="transform" begin="-1.17s" calcMode="spline" dur="3s" keySplines=".42, 0, .58, 1; .42, 0, .58, 1" repeatCount="indefinite" type="translate" values="0 -30; 0 30; 0 -30"/></circle><circle cx="76" cy="52" r="16" fill="#f8af18"><animateTransform attributeName="transform" begin="-1s" calcMode="spline" dur="3s" keySplines=".42, 0, .58, 1; .42, 0, .58, 1" repeatCount="indefinite" type="translate" values="0 -30; 0 30; 0 -30"/></circle><circle cx="12" cy="60" r="12" fill="#f8af18"><animateTransform attributeName="transform" begin="-.67s" calcMode="spline" dur="3s" keySplines=".42, 0, .58, 1; .42, 0, .58, 1" repeatCount="indefinite" type="translate" values="0 -30; 0 30; 0 -30"/></circle><circle cx="220" cy="60" r="12" fill="#f8af18"><animateTransform attributeName="transform" begin="-1.5s" calcMode="spline" dur="3s" keySplines=".42, 0, .58, 1; .42, 0, .58, 1" repeatCount="indefinite" type="translate" values="0 -30; 0 30; 0 -30"/></circle><circle cx="180" cy="20" r="8" fill="#f8af18"><animateTransform attributeName="transform" begin="-1.33s" calcMode="spline" dur="3s" keySplines=".42, 0, .58, 1; .42, 0, .58, 1" repeatCount="indefinite" type="translate" values="0 -30; 0 30; 0 -30"/></circle><circle cx="52" cy="20" r="8" fill="#f8af18"><animateTransform attributeName="transform" begin="-.83s" calcMode="spline" dur="3s" keySplines=".42, 0, .58, 1; .42, 0, .58, 1" repeatCount="indefinite" type="translate" values="0 -30; 0 30; 0 -30"/></circle></symbol></defs><path fill="#744e2d" d="m265 403.6-4-127a12 12 0 00-12-11.7h-5a12 12 0 00-12 11.7l-4 127a12 12 0 0012 12.4h13.1a12 12 0 0012-12.4Z"/><ellipse cx="293.9" cy="274.4" fill="#40c057" rx="42.7" ry="42.5"/><ellipse cx="185.2" cy="255.5" fill="#40c057" rx="42.7" ry="42.5"/><path fill="#40c057" d="M317.6 146.9a57.5 57.5 0 00-10.9 1.1 28.4 28.4 0 10-41.1 32.8 56.2 56.2 0 00-4.9 22.8 56.9 56.9 0 1057-56.7Z"/><path fill="#39ad4e" d="M289.2 184.7a57 57 0 00-106.3-28.1c-1 0-1.8-.3-2.8-.3a42.4 42.4 0 00-11.8 83.1 28 28 0 00-2.4 11.3A28.3 28.3 0 00213 272a42.6 42.6 0 0076.2-26 42 42 0 00-10.9-28.1 56.1 56.1 0 0010.9-33.2Z"/><use xlink:href="#a" width="232" height="72" transform="translate(140 90)"/></svg>