<svg xmlns="http://www.w3.org/2000/svg" xmlns:xlink="http://www.w3.org/1999/xlink" viewBox="0 0 512 512"><defs><symbol id="a" overflow="visible" viewBox="0 0 232 72"><circle cx="116" cy="12" r="12" fill="#f8af18"><animateTransform attributeName="transform" begin="-0.33s" calcMode="spline" dur="3s" keySplines=".42, 0, .58, 1; .42, 0, .58, 1" repeatCount="indefinite" type="translate" values="0 -30; 0 30; 0 -30"/></circle><circle cx="156" cy="52" r="16" fill="#f8af18"><animateTransform attributeName="transform" begin="-1.17s" calcMode="spline" dur="3s" keySplines=".42, 0, .58, 1; .42, 0, .58, 1" repeatCount="indefinite" type="translate" values="0 -30; 0 30; 0 -30"/></circle><circle cx="76" cy="52" r="16" fill="#f8af18"><animateTransform attributeName="transform" begin="-1s" calcMode="spline" dur="3s" keySplines=".42, 0, .58, 1; .42, 0, .58, 1" repeatCount="indefinite" type="translate" values="0 -30; 0 30; 0 -30"/></circle><circle cx="12" cy="60" r="12" fill="#f8af18"><animateTransform attributeName="transform" begin="-.67s" calcMode="spline" dur="3s" keySplines=".42, 0, .58, 1; .42, 0, .58, 1" repeatCount="indefinite" type="translate" values="0 -30; 0 30; 0 -30"/></circle><circle cx="220" cy="60" r="12" fill="#f8af18"><animateTransform attributeName="transform" begin="-1.5s" calcMode="spline" dur="3s" keySplines=".42, 0, .58, 1; .42, 0, .58, 1" repeatCount="indefinite" type="translate" values="0 -30; 0 30; 0 -30"/></circle><circle cx="180" cy="20" r="8" fill="#f8af18"><animateTransform attributeName="transform" begin="-1.33s" calcMode="spline" dur="3s" keySplines=".42, 0, .58, 1; .42, 0, .58, 1" repeatCount="indefinite" type="translate" values="0 -30; 0 30; 0 -30"/></circle><circle cx="52" cy="20" r="8" fill="#f8af18"><animateTransform attributeName="transform" begin="-.83s" calcMode="spline" dur="3s" keySplines=".42, 0, .58, 1; .42, 0, .58, 1" repeatCount="indefinite" type="translate" values="0 -30; 0 30; 0 -30"/></circle></symbol></defs><path fill="#f06595" d="M327.5 258.6a74.1 74.1 0 00-17.7-5.8 74.3 74.3 0 0010-15.8c13.5-28.5 7.1-59.8-14.2-69.8s-49.6 4.8-63 33.3a74.3 74.3 0 00-5.8 17.7 74.5 74.5 0 00-15.7-10c-28.5-13.5-59.8-7.1-70 14.2s5 49.6 33.4 63a74.6 74.6 0 0017.7 5.8 74.3 74.3 0 00-10 15.8c-13.4 28.5-7 59.7 14.3 69.8s49.5-4.8 63-33.3a74.2 74.2 0 005.7-17.7 75 75 0 0015.8 10c28.5 13.4 59.8 7 69.9-14.3s-4.9-49.5-33.4-63Zm-72.3 15-1.8-.7 1-1.7.7-1.8 1.7 1 1.8.7-1 1.7-.7 1.8-1.7-1Z"/><path fill="#f8af18" d="M306.3 276.2c-.2-5.9-32-7.2-32-7.2s29-4 26.6-10.6c-.3-.8-1.4-1.3-3.1-1.4 1.2-1 1.8-2.1 1.5-3-2.3-6.5-27.3 8.7-27.3 8.7s23.8-21.2 20.1-25.8-22.4 16.9-22.4 16.9 15.5-26.4 8.9-29.6-17.3 25.6-17.3 25.6 4.8-28.2-1.1-28-7.2 32-7.2 32-4-29-10.6-26.6c-.9.3-1.3 1.4-1.4 3-1.1-1.2-2.2-1.8-3-1.5-6.5 2.3 8.7 27.3 8.7 27.3s-21.2-23.8-25.8-20.1 16.9 22.4 16.9 22.4-26.4-15.5-29.6-8.8 25.6 17.2 25.6 17.2-28.2-4.7-28 1.2 31.9 7.1 31.9 7.1-29 4-26.6 10.6c.3.9 1.4 1.3 3.1 1.4-1.2 1.1-1.8 2.1-1.5 3 2.3 6.5 27.3-8.7 27.3-8.7s-23.8 21.2-20.2 25.8 22.4-17 22.4-17-15.5 26.5-8.8 29.7 17.3-25.6 17.3-25.6-4.8 28.2 1.1 28 7.2-32 7.2-32 4 29 10.6 26.6c.8-.3 1.3-1.4 1.4-3 1 1.2 2.1 1.8 3 1.4 6.5-2.3-8.7-27.2-8.7-27.2s21.1 23.8 25.8 20.1-17-22.4-17-22.4 26.5 15.5 29.6 8.8-25.5-17.2-25.5-17.2 28.2 4.8 28-1.1Z"/><use xlink:href="#a" width="232" height="72" transform="translate(140 132)"/></svg>