<svg xmlns="http://www.w3.org/2000/svg" xmlns:xlink="http://www.w3.org/1999/xlink" viewBox="0 0 512 512"><defs><linearGradient id="a" x1="310.5" x2="425.5" y1="152.5" y2="351.5" gradientUnits="userSpaceOnUse"><stop offset="0" stop-color="#d4d7dd"/><stop offset=".5" stop-color="#d4d7dd"/><stop offset="1" stop-color="#bec1c6"/></linearGradient><clipPath id="b"><path fill="none"><animate attributeName="d" calcMode="spline" dur="3s" keySplines=".42, 0, .58, 1; .42, 0, .58, 1" repeatCount="indefinite" values="M168,252H344V380H168Z; M168,220H376V380H168Z; M168,252H344V380H168Z"/></path></clipPath><symbol id="c" viewBox="0 0 175 260.9"><path fill="none" stroke="#2885c7" stroke-miterlimit="10" stroke-width="15" d="M87.5 13.4c-48.7 72-80 117-80 160.7s35.8 79.3 80 79.3 80-35.5 80-79.3-31.3-88.8-80-160.7Z"/></symbol></defs><path fill="none" stroke="#e2e8f0" stroke-miterlimit="10" stroke-width="15" d="M256 132c-48.7 72-80 117-80 160.8s35.8 79.2 80 79.2 80-35.5 80-79.3S304.7 204 256 132Z"/><path fill="none" stroke="url(#a)" stroke-linecap="round" stroke-linejoin="round" stroke-width="6" d="M352 132h32v240h-32m8-120h24m-16 56h16m-16-120h16"/><g clip-path="url(#b)"><use xlink:href="#c" width="175" height="260.9" transform="translate(168.61 119.2)"/></g></svg>