<svg xmlns="http://www.w3.org/2000/svg" xmlns:xlink="http://www.w3.org/1999/xlink" viewBox="0 0 512 512"><defs><clipPath id="a"><path fill="none" d="M238 59.1H36V268h52.4l67.4-82.6 82.2-19.2V59.1z"/></clipPath><clipPath id="b"><path fill="none" d="M368.4 0v225.6H352a45.2 45.2 0 00-38.5 21.5 30.2 30.2 0 00-45.6 25.9 29.4 29.4 0 00.5 4.9 32.3 32.3 0 00-26.4 31.8v9.8H0V0Z"><animateTransform additive="sum" attributeName="transform" dur="6s" repeatCount="indefinite" type="translate" values="-12 0; 12 0; -12 0"/></path></clipPath><symbol id="c" viewBox="0 0 193 193"><circle cx="96.5" cy="96.5" r="40" fill="none" stroke="#fbbf24" stroke-miterlimit="10" stroke-width="9"/><path fill="none" stroke="#fbbf24" stroke-linecap="round" stroke-miterlimit="10" stroke-width="9" d="M96.5 29.9V4.5m0 184v-25.4m47.1-113.7 18-18M31.4 161.6l18-18m0-94.2-18-18m130.2 130.2-18-18M4.5 96.5h25.4m158.6 0h-25.4"><animateTransform additive="sum" attributeName="transform" dur="6s" repeatCount="indefinite" type="rotate" values="0 96.5 96.5; 45 96.5 96.5"/></path></symbol><symbol id="d" overflow="visible" viewBox="0 0 197.5 128.5"><path fill="none" stroke="#e2e8f0" stroke-miterlimit="10" stroke-width="12" d="m161.3 62-1.4.1a45.8 45.8 0 001.4-10.8 45.3 45.3 0 00-83.8-23.8 30.1 30.1 0 00-45.6 26 30.5 30.5 0 00.4 4.9 32.3 32.3 0 006 64h123a30.2 30.2 0 000-60.3Z"><animateTransform additive="sum" attributeName="transform" dur="6s" repeatCount="indefinite" type="translate" values="-12 0; 12 0; -12 0"/></path></symbol></defs><g clip-path="url(#a)"><use xlink:href="#c" width="193" height="193" transform="translate(49.5 79.5)"/></g><g fill="none" stroke-miterlimit="10" stroke-width="24" clip-path="url(#b)"><path stroke="#f87171" d="M82 310c0-79.5 66.3-144 148-144s148 64.5 148 144"/><path stroke="#fbbf24" d="M106 310c0-66.3 55.5-120 124-120s124 53.7 124 120"/><path stroke="#51cf66" d="M130 310c0-53 44.8-96 100-96s100 43 100 96"/></g><use xlink:href="#d" width="197.5" height="128.5" transform="translate(235.94 219.59)"/></svg>