<svg xmlns="http://www.w3.org/2000/svg" xmlns:xlink="http://www.w3.org/1999/xlink" viewBox="0 0 512 512"><defs><symbol id="a" viewBox="0 0 359 231"><path fill="none" stroke="#e2e8f0" stroke-linecap="round" stroke-linejoin="round" stroke-width="15" d="M295.5 223.5a56 56 0 000-112l-2.5.1a83.9 83.9 0 00-153-64.2 56 56 0 00-84.6 48.1 56.6 56.6 0 00.8 9 60 60 0 0011.2 119"/></symbol><symbol id="b" overflow="visible" viewBox="0 0 128 56"><path fill="#0a5ad4" d="M8 56a8 8 0 01-8-8V8a8 8 0 0116 0v40a8 8 0 01-8 8Z" opacity="0"><animateTransform id="x1" additive="sum" attributeName="transform" begin="0s; x1.end+.33s" dur=".67s" type="translate" values="0 -60; 0 60"/><animate id="y1" attributeName="opacity" begin="0s; y1.end+.33s" dur=".67s" keyTimes="0; .25; 1" values="0; 1; 0"/></path><path fill="#0a5ad4" d="M64 56a8 8 0 01-8-8V8a8 8 0 0116 0v40a8 8 0 01-8 8Z" opacity="0"><animateTransform id="x2" additive="sum" attributeName="transform" begin=".33s; x2.end+.33s" dur=".67s" type="translate" values="0 -60; 0 60"/><animate id="y2" attributeName="opacity" begin=".33s; y2.end+.33s" dur=".67s" keyTimes="0; .25; 1" values="0; 1; 0"/></path><path fill="#0a5ad4" d="M120 56a8 8 0 01-8-8V8a8 8 0 0116 0v40a8 8 0 01-8 8Z" opacity="0"><animateTransform id="x3" additive="sum" attributeName="transform" begin="-.33s; x3.end+.33s" dur=".67s" type="translate" values="0 -60; 0 60"/><animate id="y3" attributeName="opacity" begin="-.33s; y3.end+.33s" dur=".67s" keyTimes="0; .25; 1" values="0; 1; 0"/></path></symbol></defs><use xlink:href="#a" width="359" height="231" transform="translate(76.5 140.5)"/><use xlink:href="#b" width="128" height="56" transform="translate(192 344)"/></svg>