<svg xmlns="http://www.w3.org/2000/svg" viewBox="0 0 512 512"><defs><clipPath id="a"><path fill="none" d="M119 428.7h271V305.3h-53.1L325 312l-14-9 2-14 12-7h65V81.6H119V282h68l13 8v15l-13 7-15.2-9H119v125.7z"/></clipPath></defs><circle cx="325" cy="297" r="15" fill="none" stroke="#e2e8f0" stroke-miterlimit="10" stroke-width="6"/><circle cx="187" cy="297" r="15" fill="none" stroke="#e2e8f0" stroke-miterlimit="10" stroke-width="6"/><g clip-path="url(#a)"><circle cx="256" cy="330" r="84" fill="none" stroke="#e2e8f0" stroke-miterlimit="10" stroke-width="9"/><circle cx="256" cy="202" r="60" fill="none" stroke="#e2e8f0" stroke-miterlimit="10" stroke-width="9"/><path fill="#374151" d="M259 231a3 3 0 11-3-3 3 3 0 013 3Zm-12-5a3 3 0 103 3 3 3 0 00-3-3Zm-8-6a3 3 0 103 3 3 3 0 00-3-3Zm26 6a3 3 0 103 3 3 3 0 00-3-3Zm8-6a3 3 0 103 3 3 3 0 00-3-3Zm7-34a8 8 0 11-8-8 8 8 0 018 8Zm-40-8a8 8 0 108 8 8 8 0 00-8-8Z"/><path fill="#ef4444" d="M280 266h-65.2a7 7 0 01-6.8-7.1V249a7 7 0 017.3-7h81.4a7 7 0 017.3 7v9.8a7 7 0 01-6.8 7.1Z"/><path fill="#1e293b" d="m290 133.4-24.1 6.5a.3.3 0 01-.3-.2l-9.3-34.5a4 4 0 00-5-2.9l-38.5 10.4a4 4 0 00-2.9 5l9.3 34.4a.3.3 0 01-.2.3l-24.2 6.5a6.7 6.7 0 00-4.7 8.2l2.7 10.2a6.7 6.7 0 008.3 4.7l95.2-25.4a6.7 6.7 0 004.7-8.3l-2.7-10.2a6.7 6.7 0 00-8.3-4.7Z"/><path fill="none" stroke="#ef4444" stroke-linecap="square" stroke-miterlimit="10" stroke-width="4" d="m222.1 147.4 38.6-10.3"/><ellipse cx="256" cy="205.2" fill="#ffa94d" rx="8" ry="8"/><path fill="#374151" d="M264 324a8 8 0 11-8-8 8 8 0 018 8Zm-8 16a8 8 0 108 8 8 8 0 00-8-8Zm0-48a8 8 0 108 8 8 8 0 00-8-8Z"/></g></svg>