<svg xmlns="http://www.w3.org/2000/svg" xmlns:xlink="http://www.w3.org/1999/xlink" viewBox="0 0 512 512"><defs><symbol id="b" viewBox="0 0 375 375"><circle cx="187.5" cy="187.5" r="84" fill="none" stroke="#fbbf24" stroke-miterlimit="10" stroke-width="15"/><path fill="none" stroke="#fbbf24" stroke-linecap="round" stroke-miterlimit="10" stroke-width="15" d="M187.5 57.2V7.5m0 360v-49.7m92.2-222.5 35-35M60.3 314.7l35.1-35.1m0-184.4-35-35m254.5 254.5-35.1-35.1M57.2 187.5H7.5m360 0h-49.7"><animateTransform additive="sum" attributeName="transform" dur="6s" repeatCount="indefinite" type="rotate" values="0 187.5 187.5; 45 187.5 187.5"/></path></symbol><symbol id="c" viewBox="0 0 279 279"><path fill="none" stroke="#72b9d5" stroke-linecap="round" stroke-linejoin="round" stroke-width="15" d="M256.8 173.1A133.3 133.3 0 01122.4 40.7 130.5 130.5 0 01127 7.5 133 133 0 007.5 139.1c0 73.1 60 132.4 134.2 132.4 62.5 0 114.8-42.2 129.8-99.2a135.6 135.6 0 01-14.8.8Z"/></symbol><clipPath id="a"><path fill="none" d="m238 139 6-73h224v226h-80l-55-6-82-70-13-77z"/></clipPath></defs><g clip-path="url(#a)"><use xlink:href="#b" width="375" height="375" transform="translate(74.5 76.5)"/></g><use xlink:href="#c" width="279" height="279" transform="translate(116.5 116.5)"/></svg>