<svg xmlns="http://www.w3.org/2000/svg" viewBox="0 0 512 512"><path fill="none" stroke="#fcd34d" stroke-linecap="round" stroke-linejoin="round" stroke-width="15" d="m105.7 263.5 107.5 29.9a7.9 7.9 0 015.4 5.4l29.9 107.5a7.8 7.8 0 0015 0l29.9-107.5a7.9 7.9 0 015.4-5.4l107.5-29.9a7.8 7.8 0 000-15l-107.5-29.9a7.9 7.9 0 01-5.4-5.4l-29.9-107.5a7.8 7.8 0 00-15 0l-29.9 107.5a7.9 7.9 0 01-5.4 5.4l-107.5 29.9a7.8 7.8 0 000 15Z"><animateTransform additive="sum" attributeName="transform" calcMode="spline" dur="6s" keySplines=".42, 0, .58, 1; .42, 0, .58, 1" repeatCount="indefinite" type="rotate" values="-15 256 256; 15 256 256; -15 256 256"/><animate attributeName="opacity" dur="6s" values="1; .75; 1; .75; 1; .75; 1"/></path></svg>