<svg xmlns="http://www.w3.org/2000/svg" xmlns:xlink="http://www.w3.org/1999/xlink" viewBox="0 0 512 512"><defs><symbol id="b" viewBox="0 0 175 260.9"><path fill="none" stroke="#2885c7" stroke-miterlimit="10" stroke-width="15" d="M87.5 13.4c-48.7 72-80 117-80 160.7s35.8 79.3 80 79.3 80-35.5 80-79.3-31.3-88.8-80-160.7Z"/></symbol><symbol id="d" viewBox="0 0 72 168"><circle cx="36" cy="132" r="36" fill="#ef4444"/><path fill="none" stroke="#ef4444" stroke-linecap="round" stroke-miterlimit="10" stroke-width="24" d="M36 12v120"><animateTransform attributeName="transform" calcMode="spline" dur="1s" keySplines=".42, 0, .58, 1; .42, 0, .58, 1" repeatCount="indefinite" type="translate" values="0 0; 0 18; 0 0"/></path></symbol><symbol id="e" viewBox="0 0 118 278"><path fill="none" stroke="#cbd5e1" stroke-linecap="round" stroke-linejoin="round" stroke-width="6" d="M115 218.2c0 31.4-25 56.8-56 56.8S3 249.6 3 218.2a57 57 0 0124-46.6V35.5a32 32 0 1164 0v136a57 57 0 0124 46.7ZM63 83h28M63 51h28m-28 64h28"/></symbol><symbol id="c" viewBox="0 0 118 278"><use xlink:href="#d" width="72" height="168" transform="translate(23 87)"/><use xlink:href="#e" width="118" height="278"/></symbol><clipPath id="a"><path fill="none" d="M334 392c-31 0-56-25.4-56-56.8a57 57 0 0124-46.6V152.5a32.2 32.2 0 0132-32.5H167.3v272Zm4-192h28m-28-32h28m-28 64h28"/></clipPath></defs><g clip-path="url(#a)"><use xlink:href="#b" width="175" height="260.9" transform="translate(168.43 123.18)"/></g><use xlink:href="#c" width="118" height="278" transform="translate(275 117)"/></svg>