<svg xmlns="http://www.w3.org/2000/svg" xmlns:xlink="http://www.w3.org/1999/xlink" viewBox="0 0 512 512"><defs><symbol id="c" viewBox="0 0 72 168"><circle cx="36" cy="132" r="36" fill="#ef4444"/><path fill="none" stroke="#ef4444" stroke-linecap="round" stroke-miterlimit="10" stroke-width="24" d="M36 12v120"><animateTransform attributeName="transform" calcMode="spline" dur="1s" keySplines=".42, 0, .58, 1; .42, 0, .58, 1" repeatCount="indefinite" type="translate" values="0 0; 0 18; 0 0"/></path></symbol><symbol id="d" viewBox="0 0 118 278"><path fill="none" stroke="#cbd5e1" stroke-linecap="round" stroke-linejoin="round" stroke-width="6" d="M115 218.2c0 31.4-25 56.8-56 56.8S3 249.6 3 218.2a57 57 0 0124-46.6V35.5a32 32 0 1164 0v136a57 57 0 0124 46.7ZM63 83h28M63 51h28m-28 64h28"/></symbol><symbol id="b" viewBox="0 0 118 278"><use xlink:href="#c" width="72" height="168" transform="translate(23 87)"/><use xlink:href="#d" width="118" height="278"/></symbol><clipPath id="a"><path fill="none" d="M256 392c31 0 56-25.4 56-56.8a57 57 0 00-24-46.6V152.5a32.2 32.2 0 00-32-32.5V79.7h167.2V392Zm4-192h28m-28-32h28m-28 64h28"/></clipPath></defs><g clip-path="url(#a)"><path fill="none" stroke="#72b9d5" stroke-linecap="round" stroke-linejoin="round" stroke-width="9" d="m393.7 233-23.5-13.6a57.8 57.8 0 000-26.7l23.5-13.7a16.5 16.5 0 10-16.5-28.6L353.7 164a56 56 0 00-23.2-13.3v-27.2a16.5 16.5 0 00-33 0v27.2a57.8 57.8 0 00-23.2 13.4l-23.5-13.6a16.5 16.5 0 10-16.5 28.5l23.5 13.6a57.8 57.8 0 000 26.7L234.4 233a16.5 16.5 0 1016.5 28.6l23.5-13.6a55.3 55.3 0 0023.2 13.3v27.2a16.5 16.5 0 0033 0v-27.3a57.7 57.7 0 0023.1-13.3l23.6 13.6a16.5 16.5 0 1016.5-28.5Zm-92-5.5a24.8 24.8 0 1133.8-9 24.8 24.8 0 01-33.9 9Z"><animateTransform attributeName="transform" calcMode="spline" dur="6s" keySplines=".42, 0, .58, 1; .42, 0, .58, 1; .42, 0, .58, 1; .42, 0, .58, 1" repeatCount="indefinite" type="scale" values="1 1; .9 .9; 1 1; .9 .9; 1 1"/><animateTransform additive="sum" attributeName="transform" calcMode="spline" dur="6s" keySplines=".42, 0, .58, 1; .42, 0, .58, 1; .42, 0, .58, 1; .42, 0, .58, 1" repeatCount="indefinite" type="translate" values="0 0; 31.4 20.6; 0 0; 31.4 20.6; 0 0"/><animateTransform additive="sum" attributeName="transform" calcMode="spline" dur="6s" keySplines=".42, 0, .58, 1; .42, 0, .58, 1" repeatCount="indefinite" type="rotate" values="-6 314 206; 6 314 206; -6 314 206"/></path></g><use xlink:href="#b" width="118" height="278" transform="translate(197 117)"/></svg>