<svg xmlns="http://www.w3.org/2000/svg" xmlns:xlink="http://www.w3.org/1999/xlink" viewBox="0 0 512 512"><defs><clipPath id="a"><path fill="none" d="M372 357c-22 0-40-18.1-40-40.5a40.6 40.6 0 0117.1-33.3v-97A23 23 0 01372 163H119.2v194Zm2.9-137h20m-20-22.8h20m-20 45.7h20"/></clipPath><symbol id="b" overflow="visible" viewBox="0 0 244 92"><path fill="none" stroke="#2885c7" stroke-linecap="round" stroke-linejoin="round" stroke-width="12"><animate attributeName="d" calcMode="spline" dur="3s" keySplines=".42, 0, .58, 1; .42, 0, .58, 1" repeatCount="indefinite" values="M 242 24.63 h -8 c -10.92 0 -20.85 -11.66 -26 -21.39 a 2.28 2.28 0 0 0 -4.06 0 c -5.12 9.73 -15.05 21.39 -26 21.39 S 157.15 13 152 3.24 a 2.28 2.28 0 0 0 -4.06 0 c -5.12 9.73 -15.05 21.39 -26 21.39 S 101.15 13 96 3.24 a 2.28 2.28 0 0 0 -4.06 0 c -5.12 9.73 -15 21.39 -26 21.39 S 45.15 13 40 3.24 a 2.28 2.28 0 0 0 -4.06 0 c -5.12 9.73 -15 21.39 -26 21.39 H 2 V 74 A 16.14 16.14 0 0 0 18 90 H 226 a 16.14 16.14 0 0 0 16 -16.3 Z; M 242 24.63 h -8 c -10.92 0 -20.85 -11.66 -26 -21.39 a 2.28 2.28 0 0 0 -4.06 0 c -5.12 9.73 -15.05 21.39 -26 21.39 S 157.15 13 152 3.24 a 2.28 2.28 0 0 0 -4.06 0 c -5.12 9.73 -15.05 21.39 -26 21.39 S 101.15 13 96 3.24 a 2.28 2.28 0 0 0 -4.06 0 c -5.12 9.73 -15 21.39 -26 21.39 S 45.15 13 40 3.24 a 2.28 2.28 0 0 0 -4.06 0 c -5.12 9.73 -15 21.39 -26 21.39 H 2 V 59 A 16.14 16.14 0 0 0 18 75 H 226 a 16.14 16.14 0 0 0 16 -16.3 Z; M 242 24.63 h -8 c -10.92 0 -20.85 -11.66 -26 -21.39 a 2.28 2.28 0 0 0 -4.06 0 c -5.12 9.73 -15.05 21.39 -26 21.39 S 157.15 13 152 3.24 a 2.28 2.28 0 0 0 -4.06 0 c -5.12 9.73 -15.05 21.39 -26 21.39 S 101.15 13 96 3.24 a 2.28 2.28 0 0 0 -4.06 0 c -5.12 9.73 -15 21.39 -26 21.39 S 45.15 13 40 3.24 a 2.28 2.28 0 0 0 -4.06 0 c -5.12 9.73 -15 21.39 -26 21.39 H 2 V 74 A 16.14 16.14 0 0 0 18 90 H 226 a 16.14 16.14 0 0 0 16 -16.3 Z"/><animateTransform additive="sum" attributeName="transform" calcMode="spline" dur="3s" keySplines=".42, 0, .58, 1; .42, 0, .58, 1" repeatCount="indefinite" type="translate" values="0 0; 0 15; 0 0"/></path></symbol></defs><g clip-path="url(#a)"><use xlink:href="#b" width="244" height="92" transform="translate(134 242)"/></g><ellipse cx="372" cy="317.1" fill="#ef4444" rx="25.7" ry="25.7"/><path fill="none" stroke="#ef4444" stroke-linecap="round" stroke-miterlimit="10" stroke-width="17.1" d="M372 231.5V317"><animateTransform attributeName="transform" calcMode="spline" dur="1s" keySplines=".42, 0, .58, 1; .42, 0, .58, 1" repeatCount="indefinite" type="translate" values="0 0; 0 18; 0 0"/></path><path fill="none" stroke="#cbd5e1" stroke-linecap="round" stroke-linejoin="round" stroke-width="4.3" d="M412 316.5c0 22.3-18 40.5-40 40.5s-40-18.1-40-40.5a40.6 40.6 0 0117.1-33.3v-97a22.9 22.9 0 1145.8 0v97a40.6 40.6 0 0117.1 33.3ZM374.9 220h20m-20-22.9h20m-20 45.7h20"/></svg>