<svg xmlns="http://www.w3.org/2000/svg" xmlns:xlink="http://www.w3.org/1999/xlink" viewBox="0 0 512 512"><defs><symbol id="b" viewBox="0 0 72 168"><circle cx="36" cy="132" r="36" fill="#ef4444"/><path fill="none" stroke="#ef4444" stroke-linecap="round" stroke-miterlimit="10" stroke-width="24" d="M36 12v120"><animateTransform attributeName="transform" calcMode="spline" dur="1s" keySplines=".42, 0, .58, 1; .42, 0, .58, 1" repeatCount="indefinite" type="translate" values="0 0; 0 18; 0 0"/></path></symbol><symbol id="c" viewBox="0 0 118 278"><path fill="none" stroke="#cbd5e1" stroke-linecap="round" stroke-linejoin="round" stroke-width="6" d="M115 218.2c0 31.4-25 56.8-56 56.8S3 249.6 3 218.2a57 57 0 0124-46.6V35.5a32 32 0 1164 0v136a57 57 0 0124 46.7ZM63 83h28M63 51h28m-28 64h28"/></symbol><symbol id="a" viewBox="0 0 118 278"><use xlink:href="#b" width="72" height="168" transform="translate(23 87)"/><use xlink:href="#c" width="118" height="278"/></symbol></defs><use xlink:href="#a" width="118" height="278" transform="translate(197 117)"/><path fill="#e34647" d="M372.5 247a4.6 4.6 0 01-3.2-1.3L350 227.3l-19.3 18.4a4.6 4.6 0 01-6.4 0 4.1 4.1 0 010-6l22.5-21.4a4.6 4.6 0 016.4 0l22.5 21.4a4.1 4.1 0 010 6 4.6 4.6 0 01-3.2 1.3Z" opacity="0"><animateTransform attributeName="transform" begin="-1.2s" calcMode="spline" dur="3s" keySplines=".55, 0, .1, 1; .55, 0, .1, 1" repeatCount="indefinite" type="translate" values="0 30; 0 0; 0 -30"/><animate attributeName="opacity" begin="-1.2s" calcMode="spline" dur="3s" keySplines=".55, 0, .1, 1; .55, 0, .1, 1" repeatCount="indefinite" values="0; 1; 0"/></path><path fill="#e34647" d="M372.5 274a4.6 4.6 0 01-3.2-1.3L350 254.3l-19.3 18.4a4.6 4.6 0 01-6.4 0 4.1 4.1 0 010-6l22.5-21.4a4.6 4.6 0 016.4 0l22.5 21.4a4.1 4.1 0 010 6 4.6 4.6 0 01-3.2 1.3Z" opacity="0"><animateTransform attributeName="transform" begin="-1.1s" calcMode="spline" dur="3s" keySplines=".55, 0, .1, 1; .55, 0, .1, 1" repeatCount="indefinite" type="translate" values="0 30; 0 0; 0 -30"/><animate attributeName="opacity" begin="-1.1s" calcMode="spline" dur="3s" keySplines=".55, 0, .1, 1; .55, 0, .1, 1" repeatCount="indefinite" values="0; 1; 0"/></path><path fill="#e34647" d="M372.5 301a4.6 4.6 0 01-3.2-1.3L350 281.3l-19.3 18.4a4.6 4.6 0 01-6.4 0 4.1 4.1 0 010-6l22.5-21.4a4.6 4.6 0 016.4 0l22.5 21.4a4.1 4.1 0 010 6 4.6 4.6 0 01-3.2 1.3Z" opacity="0"><animateTransform attributeName="transform" begin="-1s" calcMode="spline" dur="3s" keySplines=".55, 0, .1, 1; .55, 0, .1, 1" repeatCount="indefinite" type="translate" values="0 30; 0 0; 0 -30"/><animate attributeName="opacity" begin="-1s" calcMode="spline" dur="3s" keySplines=".55, 0, .1, 1; .55, 0, .1, 1" repeatCount="indefinite" values="0; 1; 0"/></path></svg>