<svg xmlns="http://www.w3.org/2000/svg" xmlns:xlink="http://www.w3.org/1999/xlink" viewBox="0 0 512 512"><defs><symbol id="a" viewBox="0 0 203 203"><path fill="none" stroke="#72b9d5" stroke-linecap="round" stroke-linejoin="round" stroke-width="15" d="M185 125.5a95 95 0 01-95.6-94.3 92.8 92.8 0 013.2-23.7 94.8 94.8 0 00-85.1 93.7 95 95 0 0095.6 94.3c44.5 0 81.8-30 92.4-70.7a95.8 95.8 0 01-10.5.7Z"/></symbol></defs><path fill="#374251" d="M227.6 410.7a13.4 13.4 0 018 4.3 12.3 12.3 0 013 8.3 15 15 0 01-5.5 11.8q-5.4 4.7-15.2 4.7-10.1 0-15.6-5t-5.9-14h12.3q.5 8.8 8.8 8.8a8.7 8.7 0 005.7-1.8 6 6 0 002.2-4.9 5.6 5.6 0 00-2.3-4.8 10.5 10.5 0 00-6.3-1.6h-3.6v-9h3.8a8 8 0 005.2-1.5 5.2 5.2 0 001.9-4.3 5.4 5.4 0 00-1.9-4.4 7.9 7.9 0 00-5.2-1.5 7 7 0 00-5 1.6q-1.7 1.7-2 5.4h-12q.7-16.9 19.4-17 8.9 0 13.9 4a12 12 0 015 10 11.1 11.1 0 01-2.3 7 11.3 11.3 0 01-6.4 4Zm38.7 12.6h-20.6v-9.9h20.6ZM298 403q8.1 0 13.2 4.8t5.1 13a17.9 17.9 0 01-5.8 13.7q-5.7 5.3-15 5.3T280 434q-7.1-6.8-7.1-20.7 0-13 5.7-20.2t16.6-7.2a21.8 21.8 0 0112.6 3.4 16.6 16.6 0 016.7 9.7l-12.5.7c-1-2.7-3.3-4-6.9-4a7.9 7.9 0 00-6.7 3q-2.3 3-2.8 9.7Q290 403 298 403Zm-9.6 23.6a8.6 8.6 0 006.7 2.8 7.8 7.8 0 006.1-2.4 8.9 8.9 0 002.2-6 8 8 0 00-2.4-6 8.5 8.5 0 00-6-2.3 8.3 8.3 0 00-6.1 2.3 9 9 0 00-2.5 6.1 9.1 9.1 0 002 5.5Z"/><use xlink:href="#a" width="203" height="203" transform="translate(154.5 134.5)"><animateTransform additive="sum" attributeName="transform" dur="6s" repeatCount="indefinite" type="rotate" values="-15 96.24 96.24; 9 96.24 96.24; -15 96.24 96.24"/></use></svg>