<svg xmlns="http://www.w3.org/2000/svg" xmlns:xlink="http://www.w3.org/1999/xlink" viewBox="0 0 512 512"><defs><symbol id="b" viewBox="0 0 203 203"><path fill="none" stroke="#72b9d5" stroke-linecap="round" stroke-linejoin="round" stroke-width="15" d="M185 125.5a95 95 0 01-95.6-94.3 92.8 92.8 0 013.2-23.7 94.8 94.8 0 00-85.1 93.7 95 95 0 0095.6 94.3c44.5 0 81.8-30 92.4-70.7a95.8 95.8 0 01-10.5.7Z"/></symbol><symbol id="c" viewBox="0 0 197.5 128.5"><path fill="none" stroke="#e2e8f0" stroke-miterlimit="10" stroke-width="12" d="m161.3 62-1.4.1a45.8 45.8 0 001.4-10.8 45.3 45.3 0 00-83.8-23.8 30.1 30.1 0 00-45.6 26 30.5 30.5 0 00.4 4.9 32.3 32.3 0 006 64h123a30.2 30.2 0 000-60.3Z"/></symbol><clipPath id="a"><path fill="none" d="M326.6 239a45.4 45.4 0 00-38.6 21.4 30 30 0 00-45.3 30.7 32.3 32.3 0 00-26.4 31.6L219 334H0V0h326.6Z"/></clipPath></defs><g clip-path="url(#a)"><use xlink:href="#b" width="203" height="203" transform="translate(154.5 134.5)"><animateTransform additive="sum" attributeName="transform" dur="6s" repeatCount="indefinite" type="rotate" values="-15 96.24 96.24; 9 96.24 96.24; -15 96.24 96.24"/></use></g><path fill="#374251" d="M220.2 438.4h-40.6a20.8 20.8 0 013-11.5q3-4.4 10.8-9.8l7.9-5.6a16.3 16.3 0 004.3-4 7.5 7.5 0 001.2-4.3 6.3 6.3 0 00-1.9-4.9 7.1 7.1 0 00-5-1.7q-7.4 0-7.4 8.5v1.1h-12.2v-1.6q0-8.8 5.2-13.8t14.7-5q9 0 14.4 4.4t5.4 12.2a16 16 0 01-2.5 9 26.7 26.7 0 01-8.2 7.5l-8.9 5.6c-1.7 1-2.6 2-2.7 2.8h22.5Zm33.6 0h-13.5v-32h-12.7v-9h2.2q5.5 0 8.8-2.4c2-1.5 3.3-4 4-7.3l.1-.5h11.1Zm30-15.1h-20.5v-9.9h20.5Zm44.6 9q-6 7.2-16.2 7.2t-16.3-7.2q-6-7.3-6-19.7t6-19.4q5.9-7.2 16.3-7.2 10.2 0 16.2 7.2t6 19.4q0 12.4-6 19.7Zm-16.2-3.2q9.3 0 9.3-16.4t-9.3-16.3q-9.5 0-9.5 16.3t9.5 16.4Z"/><use xlink:href="#c" width="197.5" height="128.5" transform="translate(210.31 232.95)"><animateTransform additive="sum" attributeName="transform" dur="6s" repeatCount="indefinite" type="translate" values="-6 0; 6 0; -6 0"/></use></svg>