<svg xmlns="http://www.w3.org/2000/svg" xmlns:xlink="http://www.w3.org/1999/xlink" viewBox="0 0 512 512"><defs><clipPath id="a"><path fill="none" d="M0 12h512v282H0z"/></clipPath><symbol id="b" viewBox="0 0 291 291"><circle cx="145.5" cy="145.5" r="64.4" fill="none" stroke="#fbbf24" stroke-miterlimit="10" stroke-width="12"/><path fill="none" stroke="#fbbf24" stroke-linecap="round" stroke-miterlimit="10" stroke-width="15" d="M145.5 45.6V7.5m0 276v-38m70.7-170.7L243 48M47.9 243.1l27-27m0-141.3L47.8 48M243 243.2l-27-27M45.7 145.6H7.5m276 0h-38"><animateTransform additive="sum" attributeName="transform" dur="6s" repeatCount="indefinite" type="rotate" values="0 145.5 145.5; 45 145.5 145.5"/></path></symbol></defs><g clip-path="url(#a)"><use xlink:href="#b" width="291" height="291" transform="translate(110.5 168.5)"/></g><path fill="none" stroke="#374151" stroke-linecap="round" stroke-linejoin="round" stroke-width="18" d="M128 320h256"/><path fill="#374251" d="M220.8 403q8.2 0 13.3 4.8t5 13a17.9 17.9 0 01-5.7 13.7q-5.7 5.3-15 5.3t-15.5-5.8q-7.1-6.8-7.1-20.7 0-13 5.7-20.2t16.6-7.2a21.8 21.8 0 0112.6 3.4 16.6 16.6 0 016.7 9.7l-12.5.7c-1-2.7-3.3-4-6.9-4a7.9 7.9 0 00-6.7 3q-2.3 3-2.8 9.7 4.3-5.4 12.3-5.4Zm-9.5 23.6a8.6 8.6 0 006.7 2.8 7.8 7.8 0 006.1-2.4 8.9 8.9 0 002.2-6 8 8 0 00-2.4-6 8.4 8.4 0 00-6.1-2.3 8.2 8.2 0 00-6 2.3 9 9 0 00-2.5 6.1 9.1 9.1 0 002 5.5Zm55-3.3h-20.6v-9.9h20.6Zm42.8-31.3q7.2 6.8 7.2 20.6 0 13-5.7 20.2t-16.7 7.2q-7.5 0-12.6-3.4a16.4 16.4 0 01-6.6-9.6l12.4-.8c1 2.7 3.3 4 6.9 4a8 8 0 006.7-3q2.4-3 2.9-9.6-4.5 5.3-12.4 5.3-8.2 0-13.2-4.8t-5.1-12.9a17.9 17.9 0 015.7-13.7q5.7-5.3 15-5.3t15.5 5.8Zm-14.9 21.3a8.1 8.1 0 006-2.3 9 9 0 002.5-6.2 8.7 8.7 0 00-2-5.4 8.4 8.4 0 00-6.7-2.8 8 8 0 00-6.1 2.3 8.4 8.4 0 00-2.2 6 8.1 8.1 0 002.3 6.1 8.4 8.4 0 006.2 2.3Z"/></svg>