<svg xmlns="http://www.w3.org/2000/svg" xmlns:xlink="http://www.w3.org/1999/xlink" viewBox="0 0 512 512"><defs><symbol id="a" viewBox="0 0 138 96"><path fill="none" stroke="#e2e8f0" stroke-dasharray="58" stroke-linecap="round" stroke-miterlimit="10" stroke-width="12" d="M105.2 10.8A15.6 15.6 0 11116.4 37H6"><animate attributeName="stroke-dashoffset" dur="6s" repeatCount="indefinite" values="0; 1274"/></path><path fill="none" stroke="#e2e8f0" stroke-dasharray="43" stroke-linecap="round" stroke-miterlimit="10" stroke-width="12" d="M60.7 85.2A15.6 15.6 0 1071.9 59H6.6"><animate attributeName="stroke-dashoffset" dur="6s" repeatCount="indefinite" values="0; 857"/></path></symbol></defs><path fill="none" stroke="#e2e8f0" stroke-linecap="round" stroke-linejoin="round" stroke-width="12" d="M220 360a24 24 0 11-34-34l1.8-1.8L305 207"/><g transform="rotate(45 256 256)"><g fill="#ef4444"><path d="m215.8 114-7.9 3.8a71.1 71.1 0 01-58.5.5l-12.8-5.7c.1 51.8 51.6 94.1 115.8 96-9-9.6-41.6-47.3-36.6-94.5Z"/><path d="M221.8 114c-4.9 44.5 26.4 81.2 35 90.2 8.4-9 39.7-45.9 34.8-90.2l-4 2a70.8 70.8 0 01-61.9 0Z"/><path d="M363.9 118.4a71.2 71.2 0 01-58.5-.5l-7.8-3.8c4.9 47.2-27.6 85-36.7 94.4 64.4-1.9 115.7-44.1 115.8-96Z"/></g><animateTransform additive="sum" attributeName="transform" calcMode="spline" dur="6s" keySplines=".42, 0, .58, 1; .42, 0, .58, 1" repeatCount="indefinite" type="scale" values="1 1; .9 1.1; 1 1"/><animateTransform additive="sum" attributeName="transform" calcMode="spline" dur="6s" keySplines=".42, 0, .58, 1; .42, 0, .58, 1" repeatCount="indefinite" type="translate" values="0 0; 29 -14; 0 0"/></g><use xlink:href="#a" width="138" height="96" transform="translate(62.5 201)"/></svg>