<svg xmlns="http://www.w3.org/2000/svg" xmlns:xlink="http://www.w3.org/1999/xlink" viewBox="0 0 512 512"><defs><symbol id="a" viewBox="0 0 138 96"><path fill="none" stroke="#e2e8f0" stroke-dasharray="58" stroke-linecap="round" stroke-miterlimit="10" stroke-width="12" d="M105.2 10.8A15.6 15.6 0 11116.4 37H6"><animate attributeName="stroke-dashoffset" dur="6s" repeatCount="indefinite" values="0; 1274"/></path><path fill="none" stroke="#e2e8f0" stroke-dasharray="43" stroke-linecap="round" stroke-miterlimit="10" stroke-width="12" d="M60.7 85.2A15.6 15.6 0 1071.9 59H6.6"><animate attributeName="stroke-dashoffset" dur="6s" repeatCount="indefinite" values="0; 857"/></path></symbol></defs><path fill="none" stroke="#e2e8f0" stroke-linecap="round" stroke-linejoin="round" stroke-width="12" d="M220 360a24 24 0 11-34-34l1.8-1.8L326 186"/><g transform="rotate(45 256 256)"><g fill="#ef4444"><path d="M251.7 141.1c-64.3 1.8-115.8 44-115.7 95.9l12.7-5.8a71.2 71.2 0 0158.5.5l7.9 3.7c-5-47.1 27.6-84.9 36.6-94.3Zm8.6 0c9 9.4 41.5 47.2 36.6 94.3l7.9-3.7a71.1 71.1 0 0158.5-.5L376 237c0-52-51.4-94.1-115.7-95.9Z"/><path d="M291 235.5c4.8-44.3-26.4-81.1-35-90.2-8.5 9-39.8 45.9-35 90.2l4-2a70.9 70.9 0 0162 0Z"/></g><animateTransform additive="sum" attributeName="transform" calcMode="spline" dur="6s" keySplines=".42, 0, .58, 1; .42, 0, .58, 1" repeatCount="indefinite" type="scale" values="1 1; .9 1.1; 1 1"/><animateTransform additive="sum" attributeName="transform" calcMode="spline" dur="6s" keySplines=".42, 0, .58, 1; .42, 0, .58, 1" repeatCount="indefinite" type="translate" values="0 0; 29 -14; 0 0"/></g><use xlink:href="#a" width="138" height="96" transform="translate(62.5 201)"/></svg>