<svg xmlns="http://www.w3.org/2000/svg" xmlns:xlink="http://www.w3.org/1999/xlink" viewBox="0 0 512 512"><defs><clipPath id="a"><path fill="none" d="M64 64h384v192H328a72 72 0 00-72 72v120H64Z"/></clipPath><symbol id="b" viewBox="0 0 375 375"><circle cx="187.5" cy="187.5" r="84" fill="none" stroke="#fbbf24" stroke-miterlimit="10" stroke-width="15"/><path fill="none" stroke="#fbbf24" stroke-linecap="round" stroke-miterlimit="10" stroke-width="15" d="M187.5 57.2V7.5m0 360v-49.7m92.2-222.5 35-35M60.3 314.7l35.1-35.1m0-184.4-35-35m254.5 254.5-35.1-35.1M57.2 187.5H7.5m360 0h-49.7"><animateTransform additive="sum" attributeName="transform" dur="6s" repeatCount="indefinite" type="rotate" values="0 192 192; 45 192 192"/></path></symbol></defs><g clip-path="url(#a)"><use xlink:href="#b" width="375" height="375" transform="translate(68.5 68.5)"/><path fill="none" stroke="#fbbf24" stroke-miterlimit="10" stroke-width="15" d="M254 338v-10a74 74 0 0174-74h10"/></g><rect width="144" height="144" x="280" y="280" fill="#91c700" rx="48"/><path fill="#fff" d="M379.9 388h-55.7q0-9.4 4-15.7 4-6.1 14.8-13.5l11-7.8a22.4 22.4 0 005.9-5.5 10.2 10.2 0 001.7-5.8 8.7 8.7 0 00-2.6-6.7 9.8 9.8 0 00-7-2.4q-10 0-10 11.8v1.5h-17v-2.2q0-12.1 7.2-19t20-6.8q12.5 0 19.8 6t7.4 16.7a22 22 0 01-3.5 12.2q-3.5 5.5-11.2 10.4l-12.1 7.7c-2.3 1.5-3.6 2.8-3.8 3.9h31Z"/></svg>