<svg xmlns="http://www.w3.org/2000/svg" xmlns:xlink="http://www.w3.org/1999/xlink" viewBox="0 0 512 512"><defs><symbol id="a" viewBox="0 0 342 234"><path fill="none" stroke="#e2e8f0" stroke-dasharray="148" stroke-linecap="round" stroke-miterlimit="10" stroke-width="18" d="M264.2 21.3A40 40 0 11293 89H9"><animate attributeName="stroke-dashoffset" dur="6s" repeatCount="indefinite" values="0; 3848"/></path><path fill="none" stroke="#e2e8f0" stroke-dasharray="110" stroke-linecap="round" stroke-miterlimit="10" stroke-width="18" d="M148.2 212.7A40 40 0 10177 145H9"><animate attributeName="stroke-dashoffset" dur="6s" repeatCount="indefinite" values="0; 2200"/></path></symbol></defs><use xlink:href="#a" width="342" height="234" transform="translate(85 139)"/><path fill="#374251" d="M403.4 279.7q9.7 9 9.7 27.6 0 17.5-7.7 27.1t-22.3 9.6q-10.1 0-16.8-4.6a21.9 21.9 0 01-9-12.8l16.6-1.1q2.1 5.5 9.3 5.5 5.9 0 9-4t3.8-13q-6 7.1-16.6 7.1-10.9 0-17.6-6.4t-6.9-17.3q0-11.2 7.8-18.4t20-7q12.7 0 20.7 7.7Zm-20 28.5a11 11 0 008.2-3 12.2 12.2 0 003.3-8.3 11.6 11.6 0 00-2.7-7.3 11.2 11.2 0 00-9-3.7c-3.5 0-6.2 1-8.2 3.1a11.3 11.3 0 00-2.9 8 10.9 10.9 0 003.1 8.2 11.3 11.3 0 008.3 3Z"/></svg>