<svg xmlns="http://www.w3.org/2000/svg" xmlns:xlink="http://www.w3.org/1999/xlink" viewBox="0 0 512 512"><defs><symbol id="a" viewBox="0 0 342 234"><path fill="none" stroke="#e2e8f0" stroke-dasharray="148" stroke-linecap="round" stroke-miterlimit="10" stroke-width="18" d="M264.2 21.3A40 40 0 11293 89H9"><animate attributeName="stroke-dashoffset" dur="6s" repeatCount="indefinite" values="0; 2960"/></path><path fill="none" stroke="#e2e8f0" stroke-dasharray="110" stroke-linecap="round" stroke-miterlimit="10" stroke-width="18" d="M148.2 212.7A40 40 0 10177 145H9"><animate attributeName="stroke-dashoffset" dur="6s" repeatCount="indefinite" values="0; 1540"/></path></symbol></defs><use xlink:href="#a" width="342" height="234" transform="translate(85 139)"/><path fill="#374251" d="M388.5 294.8q11 0 17.7 6.5t6.8 17.3q0 11.3-7.7 18.4t-20.2 7q-12.6 0-20.6-7.7-9.5-9-9.5-27.7 0-17.5 7.6-27t22.2-9.6q10.1 0 16.8 4.6a22.3 22.3 0 019 13l-16.6 1q-2.1-5.6-9.3-5.6-6 0-9 4t-3.7 13q5.8-7.2 16.5-7.2Zm-12.7 31.6a11.5 11.5 0 008.8 3.7q5.4 0 8.3-3.2a11.9 11.9 0 002.9-8 10.6 10.6 0 00-3.2-8 11.2 11.2 0 00-8.2-3.1 11 11 0 00-8 3 12 12 0 00-3.4 8.2 12.3 12.3 0 002.8 7.4Z"/></svg>