<svg xmlns="http://www.w3.org/2000/svg" viewBox="0 0 512 512"><path fill="none" stroke="#cbd5e1" stroke-linecap="round" stroke-linejoin="round" stroke-width="24" d="M148 376V136"/><path fill="#ef4444" d="m239.7 154.7-22.8-18a6.4 6.4 0 00-9.5 1.8l-41 71a6.4 6.4 0 003.2 9.2l27 10.7a6.4 6.4 0 007.9-2.7l36.8-63.8a6.4 6.4 0 00-1.6-8.2Z"><animateTransform additive="sum" attributeName="transform" calcMode="spline" dur="3s" keySplines=".42, 0, .58, 1; .42, 0, .58, 1" repeatCount="indefinite" type="rotate" values="0 204 183; -3 204 183; 0 204 183"/><animateTransform additive="sum" attributeName="transform" calcMode="spline" dur="3s" keySplines=".42, 0, .58, 1; .42, 0, .58, 1" repeatCount="indefinite" type="translate" values="0 0; 1 -2; 0 0"/></path><path fill="#ef4444" d="m285.2 210.6-17.4-23.3a6.4 6.4 0 00-9.6-.7L213 231.8a6.4 6.4 0 00.7 9.7l23.3 17.3a6.4 6.4 0 008.3-.6l39.3-39.2a6.4 6.4 0 00.6-8.4Z"><animateTransform additive="sum" attributeName="transform" calcMode="spline" dur="3s" keySplines=".42, 0, .58, 1; .42, 0, .58, 1" repeatCount="indefinite" type="rotate" values="0 249 222; -6 249 222; 0 249 222"/><animateTransform additive="sum" attributeName="transform" calcMode="spline" dur="3s" keySplines=".42, 0, .58, 1; .42, 0, .58, 1" repeatCount="indefinite" type="translate" values="0 0; 5 -7; 0 0"/></path><path fill="#ef4444" d="m310.5 271.2-10.7-27a6.4 6.4 0 00-9.1-3.2L251 263.9a6.4 6.4 0 00-1.9 9.5l18 22.8a6.4 6.4 0 008.2 1.5l32.4-18.7a6.4 6.4 0 002.7-7.8Z"><animateTransform additive="sum" attributeName="transform" calcMode="spline" dur="3s" keySplines=".42, 0, .58, 1; .42, 0, .58, 1" repeatCount="indefinite" type="rotate" values="0 279 269; -9 279 269; 0 279 269"/><animateTransform additive="sum" attributeName="transform" calcMode="spline" dur="3s" keySplines=".42, 0, .58, 1; .42, 0, .58, 1" repeatCount="indefinite" type="translate" values="0 0; 17 -12; 0 0"/></path></svg>