<svg xmlns="http://www.w3.org/2000/svg" xmlns:xlink="http://www.w3.org/1999/xlink" viewBox="0 0 512 512"><defs><clipPath id="a"><path fill="none" d="M245.7 256.9H74.8v139.6h110.9l27.2-52.9 32.8-36.8v-49.9z"/></clipPath><symbol id="b" viewBox="0 0 138 96"><path fill="none" stroke="#e2e8f0" stroke-dasharray="58" stroke-linecap="round" stroke-miterlimit="10" stroke-width="12" d="M105.2 10.8A15.6 15.6 0 11116.4 37H6"><animate attributeName="stroke-dashoffset" dur="6s" repeatCount="indefinite" values="0; 1274"/></path><path fill="none" stroke="#e2e8f0" stroke-dasharray="43" stroke-linecap="round" stroke-miterlimit="10" stroke-width="12" d="M60.7 85.2A15.6 15.6 0 1071.9 59H6.6"><animate attributeName="stroke-dashoffset" dur="6s" repeatCount="indefinite" values="0; 857"/></path></symbol></defs><path fill="#744e2d" d="M378.5 160.6c.5-5.8-.4-10.5-2.2-10.6l-1.4-.2c-1.7-.2-3.6 4.2-4.3 10l-12.8 111.6c-.7 6 .2 11 2 11.3l3.6.3c1.9.2 3.8-4.5 4.4-10.5Z"/><path fill="#40c057" d="M427.8 167.4a44.2 44.2 0 00-40.8-47.3 46 46 0 00-41.5 17.4l-2.2-.5c-18.7-2-35.4 10.7-37.2 28.4a32.4 32.4 0 0021.3 33 20.2 20.2 0 00-2.8 8.4c-1.3 11.7 7.9 22.3 20.3 23.6a23.4 23.4 0 0015.4-3.7 34.7 34.7 0 0025.4 15.2c18.7 2 35.4-10.8 37.2-28.4a30.8 30.8 0 00-6.4-22 41 41 0 0011.3-24.1Z"><animateTransform additive="sum" attributeName="transform" calcMode="spline" dur="3s" keySplines=".42, 0, .58, 1; .42, 0, .58, 1; .42, 0, .58, 1; .42, 0, .58, 1" repeatCount="indefinite" type="rotate" values="3 330 200; -3 330 200; 3 330 200; -3 330 200; 3 330 200"/></path><g clip-path="url(#a)"><path fill="none" stroke="#2885c7" stroke-linecap="round" stroke-linejoin="round" stroke-width="9" d="M245.7 309.6c-13.8 0-26.3-14.7-32.8-27a2.9 2.9 0 00-5.2 0c-6.4 12.3-19 27-32.7 27s-26.4-14.7-32.9-27a2.9 2.9 0 00-5 0c-6.6 12.3-19 27-32.9 27h-10v62a20.4 20.4 0 0020 20.6h131.5Z"><animate attributeName="d" calcMode="spline" dur="3s" keySplines=".42, 0, .58, 1; .42, 0, .58, 1" repeatCount="indefinite" values="M245.68,309.62c-13.79,0-26.33-14.73-32.8-27a2.88,2.88,0,0,0-5.13,0c-6.47,12.29-19,27-32.8,27s-26.33-14.73-32.81-27a2.87,2.87,0,0,0-5.12,0c-6.48,12.29-19,27-32.81,27H94.11v62a20.38,20.38,0,0,0,20.16,20.59H245.68Z; M245.68,333.62c-13.79,0-26.33-14.73-32.8-27a2.88,2.88,0,0,0-5.13,0c-6.47,12.29-19,27-32.8,27s-26.33-14.73-32.81-27a2.87,2.87,0,0,0-5.12,0c-6.48,12.29-19,27-32.81,27H94.11v38a20.38,20.38,0,0,0,20.16,20.59H245.68Z; M245.68,309.62c-13.79,0-26.33-14.73-32.8-27a2.88,2.88,0,0,0-5.13,0c-6.47,12.29-19,27-32.8,27s-26.33-14.73-32.81-27a2.87,2.87,0,0,0-5.12,0c-6.48,12.29-19,27-32.81,27H94.11v62a20.38,20.38,0,0,0,20.16,20.59H245.68Z"/></path></g><path fill="none" stroke="#f8af18" stroke-miterlimit="10" stroke-width="9" d="M402.3 369.8v-66.4c0-12.3-8.9-22.4-19.8-22.4h-62.6a120 120 0 00-74.2 26.3 143.7 143.7 0 00-42.2 54.8l-13.4 30h192.4c11 0 19.8-10 19.8-22.4Z"/><use xlink:href="#b" width="138" height="96" transform="translate(99 146)"/></svg>