<svg xmlns="http://www.w3.org/2000/svg" xmlns:xlink="http://www.w3.org/1999/xlink" viewBox="0 0 512 512"><defs><clipPath id="a"><path fill="none" d="M245.7 256.9H74.8v139.6h110.9l27.2-52.9 32.8-36.8v-49.9z"/></clipPath><symbol id="b" viewBox="0 0 138 96"><path fill="none" stroke="#e2e8f0" stroke-dasharray="58" stroke-linecap="round" stroke-miterlimit="10" stroke-width="12" d="M105.2 10.8A15.6 15.6 0 11116.4 37H6"><animate attributeName="stroke-dashoffset" dur="6s" repeatCount="indefinite" values="0; 1274"/></path><path fill="none" stroke="#e2e8f0" stroke-dasharray="43" stroke-linecap="round" stroke-miterlimit="10" stroke-width="12" d="M60.7 85.2A15.6 15.6 0 1071.9 59H6.6"><animate attributeName="stroke-dashoffset" dur="6s" repeatCount="indefinite" values="0; 857"/></path></symbol></defs><path fill="#744e2d" d="M353.4 158.3c-.8-5.8-2.9-10.2-4.6-10l-1.4.2c-1.7.3-2.6 5-1.8 10.9l14 113.5c.8 6 2.9 10.8 4.7 10.6l3.6-.5c1.8-.2 2.6-5.4 1.7-11.5Z"/><path fill="#40c057" d="M403 153.2c-3.2-23.4-26-39.7-50.8-36.4a46 46 0 00-36.3 26.7h-2.2c-18.7 2.5-32 18.8-29.6 36.4a32.4 32.4 0 0028.5 27.1 20.3 20.3 0 00-.7 8.7 22 22 0 0025.3 18.3 23.4 23.4 0 0014-7.3 34.7 34.7 0 0028.3 8.8c18.6-2.5 31.9-18.7 29.5-36.3a30.8 30.8 0 00-11.4-20 41 41 0 005.3-26Z"><animateTransform additive="sum" attributeName="transform" calcMode="spline" dur="3s" keySplines=".42, 0, .58, 1; .42, 0, .58, 1; .42, 0, .58, 1; .42, 0, .58, 1" repeatCount="indefinite" type="rotate" values="3 366 200; -3 366 200; 3 366 200; -3 366 200; 3 366 200"/></path><g clip-path="url(#a)"><path fill="none" stroke="#2885c7" stroke-linecap="round" stroke-linejoin="round" stroke-width="9" d="M245.7 309.6c-13.8 0-26.3-14.7-32.8-27a2.9 2.9 0 00-5.2 0c-6.4 12.3-19 27-32.7 27s-26.4-14.7-32.9-27a2.9 2.9 0 00-5 0c-6.6 12.3-19 27-32.9 27h-10v62a20.4 20.4 0 0020 20.6h131.5Z"><animate attributeName="d" calcMode="spline" dur="3s" keySplines=".42, 0, .58, 1; .42, 0, .58, 1" repeatCount="indefinite" values="M245.68,309.62c-13.79,0-26.33-14.73-32.8-27a2.88,2.88,0,0,0-5.13,0c-6.47,12.29-19,27-32.8,27s-26.33-14.73-32.81-27a2.87,2.87,0,0,0-5.12,0c-6.48,12.29-19,27-32.81,27H94.11v62a20.38,20.38,0,0,0,20.16,20.59H245.68Z; M245.68,333.62c-13.79,0-26.33-14.73-32.8-27a2.88,2.88,0,0,0-5.13,0c-6.47,12.29-19,27-32.8,27s-26.33-14.73-32.81-27a2.87,2.87,0,0,0-5.12,0c-6.48,12.29-19,27-32.81,27H94.11v38a20.38,20.38,0,0,0,20.16,20.59H245.68Z; M245.68,309.62c-13.79,0-26.33-14.73-32.8-27a2.88,2.88,0,0,0-5.13,0c-6.47,12.29-19,27-32.8,27s-26.33-14.73-32.81-27a2.87,2.87,0,0,0-5.12,0c-6.48,12.29-19,27-32.81,27H94.11v62a20.38,20.38,0,0,0,20.16,20.59H245.68Z"/></path></g><path fill="none" stroke="#f8af18" stroke-miterlimit="10" stroke-width="9" d="M402.3 369.8v-66.4c0-12.3-8.9-22.4-19.8-22.4h-62.6c-49.2 0-94.2 31.4-116.4 81.1l-13.4 30h192.4c11 0 19.8-10 19.8-22.4Z"/><use xlink:href="#b" width="138" height="96" transform="matrix(-1 0 0 1 237 146)"/></svg>