<?xml version="1.0" encoding="utf-8"?>
<svg xmlns="http://www.w3.org/2000/svg" xmlns:xlink="http://www.w3.org/1999/xlink" version="1.1" width="37" height="37" viewbox="0 0 17 17">
<defs>
	<filter id="blur" width="200%" height="200%">
		<feComponentTransfer>
			<feFuncA type="linear" slope="0.05"/>
		</feComponentTransfer>
		<feMerge> 
			<feMergeNode/>
			<feMergeNode in="SourceGraphic"/> 
		</feMerge>
	</filter>
	<style type="text/css"><![CDATA[
/* CLOUDS */
@keyframes am-weather-cloud-1 {
	0% {
		-webkit-transform: translate(-5px,0px);
		-moz-transform: translate(-5px,0px);
		-ms-transform: translate(-5px,0px);
		transform: translate(-5px,0px);
	}
	10% {
		-webkit-transform: translate(8px,0px);
		-moz-transform: translate(8px,0px);
		-ms-transform: translate(8px,0px);
		transform: translate(8px,0px);
	}
	12% {
		-webkit-transform: translate(10px,0px);
		-moz-transform: translate(10px,0px);
		-ms-transform: translate(10px,0px);
		transform: translate(10px,0px);
	}
	22% {
		-webkit-transform: translate(-3px,0px);
		-moz-transform: translate(-3px,0px);
		-ms-transform: translate(-3px,0px);
		transform: translate(-3px,0px);
	}
	24% {
		-webkit-transform: translate(-5px,0px);
		-moz-transform: translate(-5px,0px);
		-ms-transform: translate(-5px,0px);
		transform: translate(-5px,0px);
	}
	100% {
		-webkit-transform: translate(-5px,0px);
		-moz-transform: translate(-5px,0px);
		-ms-transform: translate(-5px,0px);
		transform: translate(-5px,0px);
	}
}
.am-weather-cloud-1 {
	-webkit-animation-name: am-weather-cloud-1;
	-moz-animation-name: am-weather-cloud-1;
	animation-name: am-weather-cloud-1;
	-webkit-animation-duration: 21s;
	-moz-animation-duration: 21s;
	animation-duration: 21s;
	-webkit-animation-timing-function: linear;
	-moz-animation-timing-function: linear;
	animation-timing-function: linear;
	-webkit-animation-iteration-count: infinite;
	-moz-animation-iteration-count: infinite;
	animation-iteration-count: infinite;
}
@keyframes am-weather-cloud-2 {
	0% {
		-webkit-transform: translate(0px,0px);
		-moz-transform: translate(0px,0px);
		-ms-transform: translate(0px,0px);
		transform: translate(0px,0px);
	}
	8% {
		-webkit-transform: translate(2px,0px);
		-moz-transform: translate(2px,0px);
		-ms-transform: translate(2px,0px);
		transform: translate(2px,0px);
	}
	16% {
		-webkit-transform: translate(0px,0px);
		-moz-transform: translate(0px,0px);
		-ms-transform: translate(0px,0px);
		transform: translate(0px,0px);
	}

}
.am-weather-cloud-2 {
	-webkit-animation-name: am-weather-cloud-2;
	-moz-animation-name: am-weather-cloud-2;
	animation-name: am-weather-cloud-2;
	-webkit-animation-duration: 21s;
	-moz-animation-duration: 21s;
	animation-duration: 21s;
	-webkit-animation-timing-function: linear;
	-moz-animation-timing-function: linear;
	animation-timing-function: linear;
	-webkit-animation-iteration-count: infinite;
	-moz-animation-iteration-count: infinite;
	animation-iteration-count: infinite;
}]]></style>
	</defs>
	<g filter="url(#blur)" id="cloudy">
		<g transform="translate(6,0)">
			<g class="am-weather-cloud-1">
				<path d="M47.7,35.4     c0-4.6-3.7-8.2-8.2-8.2c-1,0-1.9,0.2-2.8,0.5c-0.3-3.4-3.1-6.2-6.6-6.2c-3.7,0-6.7,3-6.7,6.7c0,0.8,0.2,1.6,0.4,2.3     c-0.3-0.1-0.7-0.1-1-0.1c-3.7,0-6.7,3-6.7,6.7c0,3.6,2.9,6.6,6.5,6.7l17.2,0C44.2,43.3,47.7,39.8,47.7,35.4z" fill="#d4d4d4" stroke="white" stroke-linejoin="round" stroke-width="1.2" transform="translate(-10,-8), scale(0.6)"/>
			</g>
			<g class="am-weather-cloud-2">
				<path d="M47.7,35.4     c0-4.6-3.7-8.2-8.2-8.2c-1,0-1.9,0.2-2.8,0.5c-0.3-3.4-3.1-6.2-6.6-6.2c-3.7,0-6.7,3-6.7,6.7c0,0.8,0.2,1.6,0.4,2.3     c-0.3-0.1-0.7-0.1-1-0.1c-3.7,0-6.7,3-6.7,6.7c0,3.6,2.9,6.6,6.5,6.7l17.2,0C44.2,43.3,47.7,39.8,47.7,35.4z" fill="#d4d4d4" stroke="white" stroke-linejoin="round" stroke-width="1.2" transform="translate(-20,-11)"/>
			</g>
		</g>
	</g>
</svg>