<svg xmlns="http://www.w3.org/2000/svg" xmlns:xlink="http://www.w3.org/1999/xlink" version="1.1" width="40" height="40" viewbox="0 0 17 17">
	<style><![CDATA[
	#fog_1 {
		-webkit-animation-name: fog_1_animation;
		-moz-animation-name: fog_1_animation;
		-ms-animation-name: fog_1_animation;
		animation-name: fog_1_animation;
		-webkit-animation-duration: 20s;
		-moz-animation-duration: 20s;
		-ms-animation-duration: 20s;
		animation-duration: 20s;
		-webkit-animation-timing-function: linear;
		-moz-animation-timing-function: linear;
		-ms-animation-timing-function: linear;
		animation-timing-function: linear;
		-webkit-animation-iteration-count: infinite;
		-moz-animation-iteration-count: infinite;
		-ms-animation-iteration-count: infinite;
		animation-iteration-count: infinite;
	}
	@keyframes fog_1_animation {
		0% {
			transform: translate(4px,4px)
		}
		6% {
			transform: translate(7px,4px)
		}
		12% {
			transform: translate(4px,4px)
		}
		18% {
			transform: translate(1px,4px)
		}
		24% {
			transform: translate(4px,4px)
		}
		100% {
			transform: translate(4px,4px)
		}
	}
	#fog_2 {
		-webkit-animation-name: fog_2_animation;
		-moz-animation-name: fog_2_animation;
		-ms-animation-name: fog_2_animation;
		animation-name: fog_2_animation;
		-webkit-animation-duration: 20s;
		-moz-animation-duration: 20s;
		-ms-animation-duration: 20s;
		animation-duration: 20s;
		-webkit-animation-timing-function: linear;
		-moz-animation-timing-function: linear;
		-ms-animation-timing-function: linear;
		animation-timing-function: linear;
		-webkit-animation-iteration-count: infinite;
		-moz-animation-iteration-count: infinite;
		-ms-animation-iteration-count: infinite;
		animation-iteration-count: infinite;
	}
	@keyframes fog_2_animation {
		0% {
			transform: translate(4px,7px)
		}
		6% {
			transform: translate(4px,7px)
		}
		12% {
			transform: translate(7px,7px)
		}
		18% {
			transform: translate(4px,7px)
		}
		24% {
			transform: translate(1px,7px)
		}
		30% {
			transform: translate(4px,7px)
		}
		100% {
			transform: translate(4px,7px)
		}
	}]]></style>
	<g>
		<g transform="translate(-12,-18)">
			<g>
				<path d="M47.7,35.4c0-4.6-3.7-8.2-8.2-8.2c-1,0-1.9,0.2-2.8,0.5c-0.3-3.4-3.1-6.2-6.6-6.2c-3.7,0-6.7,3-6.7,6.7c0,0.8,0.2,1.6,0.4,2.3	c-0.3-0.1-0.7-0.1-1-0.1c-3.7,0-6.7,3-6.7,6.7c0,3.6,2.9,6.6,6.5,6.7l17.2,0C44.2,43.3,47.7,39.8,47.7,35.4z" fill="#d4d4d4" stroke="white" stroke-linejoin="round" stroke-width="1.2"/>
			</g>
		</g>
		<g id="fog_1">
			<path d="m24.58,25.47 l-17.07,0 c-0.36,0 -0.65,0.45 -0.65,1.04 c0,0.56 0.29,1.02 0.65,1.02 l17.07,0 c0.36,0 0.65,-0.45 0.65,-1.02 c0,-0.58 -0.29,-1.04 -0.65,-1.04z" fill="#d4d4d4" stroke="white" stroke-linejoin="round" stroke-width="0.2" transform="translate(0,-1)" />
		</g>
		<g id="fog_2" transform="translate(4,7)">
			<path d="m24.58,25.47 l-17.07,0 c-0.36,0 -0.65,0.45 -0.65,1.04 c0,0.56 0.29,1.02 0.65,1.02 l17.07,0 c0.36,0 0.65,-0.45 0.65,-1.02 c0,-0.58 -0.29,-1.04 -0.65,-1.04z" fill="#d4d4d4" stroke="white" stroke-linejoin="round" stroke-width="0.2" />
		</g>
	</g>
</svg>