<?xml version="1.0"?>
<svg width="800" height="800" xmlns="http://www.w3.org/2000/svg" xmlns:svg="http://www.w3.org/2000/svg">
 <style>
  <![CDATA[#edp377gkbz0n3_to {animation: edp377gkbz0n3_to__to 9000ms linear infinite normal forwards}@keyframes edp377gkbz0n3_to__to { 0% {transform: translate(51.201500px,0px)} 16.666667% {transform: translate(102.403000px,0px)} 33.333333% {transform: translate(51.201500px,0px)} 50% {transform: translate(51.201500px,0px)} 66.666667% {transform: translate(0px,0px)} 83.333333% {transform: translate(51.201500px,0px)} 100% {transform: translate(51.201500px,0px)} }]]>
 </style>
 <g class="layer">
  <title>Layer 1</title>
  <path d="m648.576,314.054c-5.056,-3.264 -11.52,-3.36 -16.672,-0.32c-6.816,4 -15.008,6.112 -23.584,6.112c-26.464,0 -48,-21.536 -48,-48c0,-8.608 2.112,-16.768 6.112,-23.584c3.04,-5.184 2.912,-11.616 -0.32,-16.704c-3.264,-5.056 -9.152,-7.904 -15.008,-7.328c-49.472,4.672 -86.784,45.792 -86.784,95.616c0,52.928 43.072,96 96,96c49.824,0 90.944,-37.312 95.616,-86.816c0.544,-5.952 -2.272,-11.776 -7.36,-14.976z" fill="rgb(176,190,197)" id="edp377gkbz0n2"/>
  <g id="edp377gkbz0n3_to">
   <path d="m525.492705,335.902403c-11.9552,-59.212801 -63.820801,-102.425602 -125.491202,-102.425602c-51.225601,0 -97.203201,30.4896 -117.350402,76.825601c-48.409601,1.152 -87.449601,40.883201 -87.449601,89.574401c0,49.408001 40.192001,89.600001 89.600001,89.600001l243.200004,0c42.342401,0 76.800001,-34.457601 76.800001,-76.800001c0,-43.187201 -36.428801,-77.875201 -79.308801,-76.774401z" fill="#57A0EE" id="edp377gkbz0n3"/>
  </g>
 </g>
</svg>