<?xml version="1.0"?>
<svg width="800" height="800" xmlns="http://www.w3.org/2000/svg" xmlns:svg="http://www.w3.org/2000/svg">
 <style>
  <![CDATA[#e55c3fdwds5k4_to {animation: e55c3fdwds5k4_to__to 3000ms linear infinite normal forwards}@keyframes e55c3fdwds5k4_to__to { 0% {transform: translate(63.984000px,-64px)} 33.333333% {transform: translate(205.506673px,-14px)} 100% {transform: translate(-106.719665px,96px)} }#e55c3fdwds5k4 {animation: e55c3fdwds5k4_f_o 3000ms linear infinite normal forwards}@keyframes e55c3fdwds5k4_f_o { 0% {fill-opacity: 0} 33.333333% {fill-opacity: 1} 83.333333% {fill-opacity: 1} 100% {fill-opacity: 0} }#e55c3fdwds5k5_to {animation: e55c3fdwds5k5_to__to 3000ms linear infinite normal forwards}@keyframes e55c3fdwds5k5_to__to { 0% {transform: translate(-219.952268px,-78.434368px)} 33.333333% {transform: translate(-219.952268px,-78.434368px)} 100% {transform: translate(86.431665px,16px)} }#e55c3fdwds5k5 {animation: e55c3fdwds5k5_f_o 3000ms linear infinite normal forwards}@keyframes e55c3fdwds5k5_f_o { 0% {fill-opacity: 0} 33.333333% {fill-opacity: 0} 50% {fill-opacity: 1} 83.333333% {fill-opacity: 1} 100% {fill-opacity: 0} }]]>
 </style>
 <g class="layer">
  <title>Layer 1</title>
  <path d="m571.128204,388.871796c-1.024,0 -2.048,0 -3.136,0.032c-14.912,-74.016 -79.776,-128.032 -156.864,-128.032c-64.032,0 -121.504,38.112 -146.688,96.032c-60.512,1.44 -109.312,51.104 -109.312,111.968c0,61.76 50.24,112 112,112l304,0c52.928,0 96,-43.072 96,-96c0,-52.928 -43.072,-96 -96,-96z" fill="#57A0EE" id="e55c3fdwds5k2"/>
  <g id="e55c3fdwds5k3">
   <g id="e55c3fdwds5k4_to" transform="translate(63.984000,-64)">
    <path d="m430.264204,516.871796c-4.448,-7.68 -14.24,-10.304 -21.856,-5.856l-45.28,26.144l0,-52.288c0,-8.832 -7.168,-16 -16,-16c-8.832,0 -16,7.168 -16,16l0,52.288l-45.28,-26.144c-7.648,-4.448 -17.44,-1.824 -21.856,5.856c-4.416,7.648 -1.792,17.44 5.856,21.856l45.312,26.144l-45.312,26.144c-7.648,4.416 -10.272,14.208 -5.856,21.856c2.976,5.12 8.352,8 13.888,8c2.72,0 5.472,-0.672 8,-2.144l45.248,-26.144l0,52.288c0,8.832 7.168,16 16,16c8.832,0 16,-7.168 16,-16l0,-52.288l45.28,26.144c2.528,1.472 5.28,2.144 8,2.144c5.536,0 10.912,-2.88 13.888,-8c4.416,-7.648 1.792,-17.44 -5.856,-21.856l-45.344,-26.144l45.312,-26.144c7.648,-4.416 10.272,-14.208 5.856,-21.856z" fill="rgb(207,216,220)" fill-opacity="0" id="e55c3fdwds5k4"/>
   </g>
   <g id="e55c3fdwds5k5_to" transform="translate(-219.952268,-78.434368)">
    <path d="m572.696204,687.015796l-17.6,-10.144l17.6,-10.144c7.648,-4.416 10.272,-14.176 5.856,-21.856c-4.416,-7.68 -14.208,-10.304 -21.856,-5.856l-17.568,10.144l0,-20.288c0,-8.832 -7.168,-16 -16,-16c-8.832,0 -16,7.168 -16,16l0,20.288l-17.568,-10.144c-7.616,-4.416 -17.44,-1.792 -21.824,5.856c-4.448,7.648 -1.824,17.44 5.856,21.856l17.568,10.144l-17.6,10.144c-7.648,4.416 -10.272,14.208 -5.824,21.856c2.944,5.12 8.352,8 13.856,8c2.72,0 5.472,-0.672 8,-2.144l17.536,-10.144l0,20.288c0,8.832 7.168,16 16,16c8.832,0 16,-7.168 16,-16l0,-20.288l17.568,10.144c2.528,1.472 5.28,2.144 8,2.144c5.504,0 10.912,-2.88 13.856,-8c4.416,-7.648 1.792,-17.44 -5.856,-21.856z" fill="rgb(207,216,220)" fill-opacity="0" id="e55c3fdwds5k5"/>
   </g>
  </g>
 </g>
</svg>